<?xml version="1.0" encoding="UTF-8"?>
<svg xmlns="http://www.w3.org/2000/svg" xmlns:xlink="http://www.w3.org/1999/xlink" width="100px" height="47px" viewBox="0 0 100 47">
  <!-- Generator: Sketch 49.1 (51147) - http://www.bohemiancoding.com/sketch -->
  <title>CQC</title>
  <desc>Created with Sketch.</desc>
  <defs></defs>
  <g id="Page-1" stroke="none" stroke-width="1" fill="none" fill-rule="evenodd">
    <g id="CQC">
      <g id="Group">
        <path d="M43.4895338,31.3617408 C42.0098345,31.3617408 41.0506942,32.4462072 41.0506942,34.0482597 C41.0506942,35.6503123 41.9975377,36.7142396 43.4157538,36.7142396 C44.8339697,36.7142396 45.8422966,35.6503123 45.8422966,34.0482597 C45.8422966,32.4462072 44.9118486,31.3617408 43.4895338,31.3617408 Z M43.4608415,35.9625072 C42.5877779,35.9625072 41.9360544,35.18202 41.9360544,34.0153972 C41.9360544,32.8487742 42.5139979,32.097042 43.4280504,32.097042 C44.342103,32.097042 44.9405408,32.8857446 44.9405408,34.0564754 C44.9405408,35.2272061 44.415883,35.9625072 43.4608415,35.9625072 Z M74.3131872,29.5707283 C74.0926937,29.5707283 73.8939113,29.70384 73.8095321,29.9079937 C73.7251528,30.1121473 73.7717938,30.3471383 73.9277062,30.5033907 C74.0836187,30.6596431 74.3180985,30.7063858 74.5218079,30.6218225 C74.7255175,30.5372593 74.8583396,30.3380435 74.8583396,30.1170693 C74.8594307,29.9732589 74.803471,29.8349045 74.7027715,29.7324448 C74.6020721,29.6299851 74.4648825,29.5718137 74.3213849,29.5707283 L74.3131872,29.5707283 Z M38.5421734,35.8885663 C36.9968918,35.8885663 36.0295538,34.7712373 36.0295538,33.0541656 C36.0295538,31.3370939 37.1854408,30.2526276 38.6159535,30.2526276 C39.2138066,30.2437931 39.8015356,30.4078034 40.3087951,30.7250276 L40.7186841,30.0718832 C40.6367062,29.9897266 39.9521917,29.4187387 38.5667668,29.4187387 C36.6320907,29.4187387 35.0663146,30.7866451 35.0663146,33.1363221 C35.0663146,35.3997349 36.5501128,36.726563 38.4315034,36.726563 C39.2764559,36.7573442 40.1065473,36.4979186 40.7842663,35.991262 L40.3743773,35.3381175 C39.8254934,35.686353 39.1916931,35.8767656 38.5421734,35.8885663 Z M78.1702427,31.3699565 C76.6905434,31.3699565 75.7314031,32.4544228 75.7314031,34.0564754 C75.7314031,35.658528 76.6782468,36.7224552 78.0964627,36.7224552 C79.5146787,36.7224552 80.5230056,35.658528 80.5230056,34.0564754 C80.5230056,32.4544228 79.5884587,31.3617408 78.1702427,31.3617408 L78.1702427,31.3699565 Z M78.1497483,35.9707228 C77.2766846,35.9707228 76.6249611,35.1902356 76.6249611,34.0236128 C76.6249611,32.8569899 77.2029046,32.1052576 78.1169572,32.1052576 C79.0310097,32.1052576 79.6294476,32.8939604 79.6294476,34.0646911 C79.6294476,35.2354218 79.0965918,35.9625072 78.1497483,35.9625072 L78.1497483,35.9707228 Z M83.8472055,31.3699565 C83.2800801,31.3840948 82.7291586,31.562429 82.2609351,31.8834349 L82.2609351,31.5055148 L81.4616514,31.5055148 L81.4616514,36.5951125 L82.3552096,36.5951125 L82.3552096,32.5612263 C82.7544317,32.2991662 83.2150673,32.1462303 83.6914476,32.117581 C83.9527156,32.1093586 84.2074444,32.200322 84.4046545,32.3722663 C84.6669835,32.6351673 84.6792801,33.0582734 84.6792801,33.6990945 L84.6792801,36.5951125 L85.5728382,36.5951125 L85.5728382,33.637477 C85.5728382,32.8159117 85.5523438,32.2901097 85.0686748,31.8053862 C84.7388508,31.4941739 84.2952427,31.3335915 83.8431066,31.3617408 L83.8472055,31.3699565 Z M52.0070273,31.3699565 C51.3736065,31.3889897 50.7595518,31.593169 50.2404058,31.9573758 C49.9488179,31.5632768 49.4790324,31.3425363 48.9902442,31.3699565 C48.4338979,31.3947738 47.8950687,31.5724066 47.4326661,31.8834349 L47.4326661,31.5055148 L46.6333824,31.5055148 L46.6333824,36.5951125 L47.5269404,36.5951125 L47.5269404,32.5283638 C47.9214618,32.2868841 48.3689655,32.1458528 48.8303876,32.117581 C49.0740423,32.1036607 49.3131335,32.1879689 49.4944077,32.3517272 C49.7567368,32.6269515 49.7485389,33.0911361 49.7485389,33.7730354 L49.7485389,36.5951125 L50.6298003,36.5951125 L50.6298003,33.7607118 C50.6509892,33.3615763 50.6220707,32.9613541 50.5437235,32.569442 C50.9490339,32.3157045 51.4111655,32.1674435 51.8881596,32.1381201 C52.146553,32.1183813 52.4003431,32.2147007 52.580872,32.4010211 C52.843201,32.6844611 52.8350031,33.3170665 52.8350031,33.6333693 L52.8350031,36.6115438 L53.7080668,36.6115438 L53.7080668,33.6539083 C53.7080668,32.832343 53.6875723,32.3065411 53.2039032,31.8218175 C52.882778,31.5109859 52.4490599,31.3448346 52.0029285,31.3617408 L52.0070273,31.3699565 Z M62.9264706,36.6033282 L63.8200286,36.6033282 L63.8200286,31.4972992 L62.9264706,31.4972992 L62.9264706,36.5951125 L62.9264706,36.6033282 Z M63.3691507,29.5789439 C63.0680713,29.5789439 62.8239983,29.8235492 62.8239983,30.1252849 C62.8239983,30.4270207 63.0680713,30.6716259 63.3691507,30.6716259 C63.67023,30.6716259 63.9143031,30.4270207 63.9143031,30.1252849 C63.9165372,29.9775323 63.8589558,29.8351739 63.7546942,29.7306851 C63.6504327,29.6261962 63.5083841,29.5684892 63.3609528,29.5707283 L63.3691507,29.5789439 Z M60.0900386,31.3699565 C59.4566177,31.3889897 58.842563,31.593169 58.3234169,31.9573758 C58.0364123,31.5689313 57.5755786,31.3487883 57.09375,31.3699565 C56.537442,31.3949831 55.9986677,31.5725979 55.5361717,31.8834349 L55.5361717,31.5055148 L54.7368882,31.5055148 L54.7368882,36.5951125 L55.6304462,36.5951125 L55.6304462,32.5283638 C56.0251744,32.2873406 56.4725623,32.1463458 56.9338932,32.117581 C57.1775479,32.1036607 57.4166393,32.1879689 57.5979134,32.3517272 C57.8602424,32.6269515 57.8520446,33.0911361 57.8520446,33.7730354 L57.8520446,36.5951125 L58.7333059,36.5951125 L58.7333059,33.7607118 C58.7544949,33.3615763 58.7255763,32.9613541 58.6472293,32.569442 C59.0520945,32.3147435 59.5144768,32.1664021 59.9916652,32.1381201 C60.2498928,32.1195266 60.5032159,32.2156689 60.6843776,32.4010211 C60.9467066,32.6844611 60.93441,33.3170665 60.93441,33.6333693 L60.93441,36.6115438 L61.827968,36.6115438 L61.827968,33.6539083 C61.827968,32.832343 61.8074735,32.3065411 61.3238045,31.8218175 C60.9908004,31.4981096 60.5365451,31.3309375 60.073643,31.3617408 L60.0900386,31.3699565 Z M65.9022648,32.7584021 C65.9022648,32.380482 66.2178793,32.0723949 66.8368117,32.0723949 C67.2629803,32.0835711 67.67922,32.2037661 68.0459842,32.4215603 L68.3820932,31.8218175 C67.9064703,31.507307 67.3447852,31.3493477 66.7753283,31.3699565 C65.7342103,31.3699565 65.0005089,31.9491601 65.0005089,32.8118038 C65.0005089,34.4343955 67.5131286,34.2043572 67.5131286,35.2436375 C67.5131286,35.6996062 67.1032396,36.0035855 66.5375927,36.0035855 C66.0580841,36.0014411 65.5885172,35.8663773 65.18086,35.6133418 L64.8201577,36.2254082 C65.3393563,36.5635697 65.9471348,36.7394376 66.5662849,36.7306708 C67.5664141,36.7306708 68.427181,36.1637907 68.427181,35.1738044 C68.427181,33.5512127 65.8817703,33.7278493 65.8817703,32.7501865 L65.9022648,32.7584021 Z M73.9032982,36.6033282 L74.7968562,36.6033282 L74.7968562,31.4972992 L73.9032982,31.4972992 L73.9032982,36.5951125 L73.9032982,36.6033282 Z M70.2347915,32.7584021 C70.2347915,32.380482 70.5504061,32.0723949 71.1693385,32.0723949 C71.5955072,32.0835711 72.0117469,32.2037661 72.378511,32.4215603 L72.71462,31.8218175 C72.238997,31.507307 71.6773121,31.3493477 71.1078551,31.3699565 C70.066737,31.3699565 69.3330358,31.9491601 69.3330358,32.8118038 C69.3330358,34.4343955 71.8456554,34.2043572 71.8456554,35.2436375 C71.8456554,35.6996062 71.4357663,36.0035855 70.8701194,36.0035855 C70.3905499,36.0018701 69.9208689,35.8667735 69.5133869,35.6133418 L69.1526845,36.2254082 C69.6718831,36.5635697 70.2796617,36.7394376 70.8988117,36.7306708 C71.894842,36.7306708 72.7556089,36.1637907 72.7556089,35.1738044 C72.7556089,33.5512127 70.214297,33.7278493 70.214297,32.7501865 L70.2347915,32.7584021 Z" id="Shape" fill="#FFFFFF" fill-rule="nonzero"></path>
        <path d="M38.5339756,27.0960594 C39.4607663,27.1240827 40.3668407,26.8179985 41.0875842,26.2334156 L40.4727507,25.2434294 C39.9460556,25.5899876 39.3356172,25.7872868 38.706129,25.8144173 C37.3903854,25.8144173 36.5501128,24.8696172 36.5501128,23.4195542 C36.5501128,21.9694913 37.5256487,21.0575537 38.779909,21.0575537 C39.3697182,21.0485954 39.9460077,21.2348539 40.4194651,21.5874632 L41.0547931,20.6221239 C40.9810131,20.5481831 40.2637073,19.8005586 38.7102279,19.8005586 C36.6607828,19.8005586 35.0663146,21.1848962 35.0663146,23.4976028 C35.0745124,25.7445842 36.5829039,27.0960594 38.5339756,27.0960594 Z M41.4892754,25.3995268 C41.4626789,25.8429476 41.6268583,26.2765511 41.9402868,26.590663 C42.2537152,26.9047748 42.6863754,27.0693121 43.1288314,27.0426576 C43.6480725,27.0375294 44.1526541,26.8694477 44.5716407,26.5620418 L44.5716407,26.9194228 L45.8013077,26.9194228 L45.8013077,23.8508761 C45.8013077,23.185408 45.8013077,22.6554983 45.3914187,22.2077452 C44.9280677,21.8088148 44.3290708,21.6042997 43.7190715,21.6367572 C43.0297985,21.6108876 42.3499368,21.8035039 41.7761977,22.1872061 L42.2434711,23.0827124 C42.6617418,22.8533473 43.1277931,22.7253258 43.6043027,22.7089001 C43.8639676,22.6832249 44.1235839,22.7581927 44.3298062,22.9183993 C44.4690772,23.0862839 44.5262039,23.3077562 44.4855641,23.5222499 L44.342103,23.5222499 C43.7108738,23.5468968 41.4892754,23.5797594 41.4892754,25.3995268 Z M44.4773663,25.6706434 C44.1913158,25.8714714 43.8510801,25.9803549 43.5018304,25.9828383 C43.3056841,26.0112299 43.1068413,25.9535528 42.9561492,25.8245559 C42.805457,25.6955592 42.7175269,25.5077501 42.7148435,25.3091546 C42.7148435,24.6642258 43.3583693,24.4875892 44.2601251,24.4875892 L44.4773663,24.4875892 L44.4773663,25.6870746 L44.4773663,25.6706434 Z M47.8589506,23.5674359 C48.1790852,23.0908286 48.7205086,22.8117752 49.2935621,22.828027 C49.398027,22.8318469 49.5021087,22.8428268 49.6050777,22.8608897 L49.9288901,21.7969625 C49.748949,21.704502 49.5490324,21.6579413 49.3468477,21.6614042 C48.6953585,21.6668079 48.0780586,21.9544107 47.6540061,22.450107 L47.6540061,21.8051782 L46.461229,21.8051782 L46.461229,26.9194228 L47.8630494,26.9194228 L47.8630494,23.5592203 L47.8589506,23.5674359 Z M52.2693563,21.665512 C50.8183492,21.665512 49.8100223,22.8321349 49.8100223,24.4013248 C49.8100223,25.8883582 50.6912837,27.0755203 52.355433,27.0755203 C53.0457801,27.0814768 53.7227107,26.8843818 54.3024058,26.5086401 L53.847429,25.6131338 C53.4278818,25.8376421 52.9620241,25.9613917 52.4865975,25.9746225 C52.1579039,26.0066134 51.8306863,25.9006023 51.5828786,25.681838 C51.3350708,25.4630738 51.1888537,25.1511373 51.1790515,24.8203232 L54.5483392,24.8203232 C54.5483392,24.7504901 54.5688337,24.6026083 54.5688337,24.3848935 C54.5483392,22.7253314 53.7613523,21.665512 52.2693563,21.665512 Z M51.1708538,23.8180134 C51.2005068,23.2080259 51.6930468,22.7233544 52.3021475,22.7047923 C53.1629144,22.7047923 53.2653866,23.5263576 53.2653866,23.8180134 L51.1667549,23.8180134 L51.1708538,23.8180134 Z M64.8529489,27.0755203 C65.375781,27.0466786 65.8781401,26.8621739 66.2957582,26.5456106 L66.2957582,26.9194228 L67.4885352,26.9194228 L67.4885352,21.8092859 L66.0867148,21.8092859 L66.0867148,25.5556242 C65.8072169,25.7490803 65.479177,25.8600886 65.1398711,25.8760348 C64.9392359,25.8925417 64.7406463,25.8257056 64.5906199,25.6911825 C64.402071,25.5022225 64.3733787,25.1694885 64.3733787,24.5040206 L64.3733787,21.8092859 L62.9715583,21.8092859 L62.9715583,24.5656379 C62.9715583,25.2311059 62.9510638,25.9992696 63.5208096,26.5743654 C63.8773331,26.9150342 64.3566655,27.095917 64.84885,27.0755203 L64.8529489,27.0755203 Z M71.1365473,26.5661497 L71.1365473,26.9194228 L72.3662144,26.9194228 L72.3662144,23.8508761 C72.3662144,23.185408 72.3662144,22.6554983 71.9563254,22.2077452 C71.4929744,21.8088148 70.8939775,21.6042997 70.2839782,21.6367572 C69.5947049,21.6108876 68.9148434,21.8035039 68.3411044,22.1872061 L68.8083777,23.0827124 C69.226591,22.8532049 69.6926766,22.7251739 70.1692093,22.7089001 C70.4288742,22.6832249 70.6884904,22.7581927 70.8947128,22.9183993 C71.0339838,23.0862839 71.0911106,23.3077562 71.0504707,23.5222499 L70.9029106,23.5222499 C70.2798793,23.5222499 68.0582808,23.5551124 68.0582808,25.3748799 C68.0316844,25.8183007 68.1958638,26.2519041 68.5092923,26.5660159 C68.8227207,26.8801277 69.2553808,27.0446652 69.6978369,27.0180107 C70.2113876,27.0211999 70.7130506,26.8631906 71.1324485,26.5661497 L71.1365473,26.5661497 Z M69.2674535,25.3091546 C69.2674535,24.6642258 69.9109792,24.4875892 70.8127351,24.4875892 L71.0299762,24.4875892 L71.0299762,25.6870746 C70.7439256,25.8879027 70.4036901,25.9967862 70.0544404,25.9992696 C69.8547486,26.0281827 69.6524504,25.9678713 69.5009983,25.8342711 C69.3495462,25.700671 69.2641792,25.5072252 69.2674535,25.3050468 L69.2674535,25.3091546 Z M74.4361538,19.3979915 L73.0343335,19.3979915 L73.0343335,26.9194228 L74.4361538,26.9194228 L74.4361538,19.3938837 L74.4361538,19.3979915 Z M75.8625676,21.1684649 C76.3011555,21.1571908 76.6486935,20.7937215 76.6412414,20.3540962 C76.6337893,19.9144708 76.2741331,19.5630415 75.8354162,19.5667035 C75.3966992,19.5703656 75.0429338,19.92775 75.0427896,20.3674387 C75.0404052,20.5842054 75.1266935,20.7924962 75.2815703,20.9438303 C75.436447,21.0951642 75.6464021,21.1763406 75.8625676,21.1684649 Z M76.5675768,21.8051782 L75.1657563,21.8051782 L75.1657563,26.9194228 L76.5675768,26.9194228 L76.5675768,21.8092859 L76.5675768,21.8051782 Z M80.1909955,25.9130052 C79.576162,25.9130052 79.5474699,25.444713 79.5474699,25.038038 L79.5474699,22.9841245 L81.0025758,22.9841245 L81.0025758,21.8175017 L79.5515687,21.8175017 L79.5515687,20.3920856 L78.1497483,20.3920856 L78.1497483,21.8175017 L77.2684869,21.8175017 L77.2684869,22.9841245 L78.1497483,22.9841245 L78.1497483,24.9846363 C78.1497483,25.7035061 78.1497483,26.1923375 78.5842306,26.627767 C78.9472066,26.9450186 79.4189844,27.1085124 79.8999744,27.0837359 C80.351333,27.0933165 80.7966142,26.9782004 81.1870258,26.751002 L80.8345213,25.7815548 C80.6302455,25.8594197 80.4136451,25.899773 80.1950944,25.9006817 L80.1909955,25.9130052 Z M82.4084951,28.2216039 C82.1368517,28.2174641 81.8689652,28.1573379 81.6215082,28.0449675 L81.2116192,29.0431694 C81.6028856,29.259957 82.0434094,29.3717431 82.4904728,29.3676877 C83.0408099,29.4058175 83.5823559,29.2140045 83.9865677,28.837778 C84.3472701,28.4721814 84.5768079,28.0162127 84.9744003,26.9933637 L86.999252,21.8216094 L85.6179261,21.8216094 L84.3390723,25.4118503 L82.970043,21.8216094 L81.478047,21.8216094 L83.6176676,26.9194228 C83.5116662,27.287229 83.3394092,27.6324942 83.1094054,27.9381639 C82.9276824,28.1208899 82.6780255,28.2191832 82.4207917,28.2092806 L82.4084951,28.2216039 Z M62.3362304,23.4113385 C62.3362304,21.3245624 61.0040911,19.8210976 58.9505472,19.8210976 C56.8970032,19.8210976 55.5648639,21.2711606 55.5648639,23.4113385 C55.5648639,25.5515165 56.9092999,27.0837359 58.8931627,27.1083828 L58.9792394,27.1083828 C59.7590059,27.0711131 60.5132924,27.3916279 61.0286844,27.9792423 C61.1721456,27.8847621 62.2173625,26.9810403 62.2173625,26.9810403 C61.8934472,26.6632808 61.4682965,26.4698735 61.0163877,26.4346993 C61.9056321,25.6905177 62.394393,24.5709142 62.3362304,23.4113385 Z M58.9833383,25.8760348 C57.8889346,25.8760348 57.0568599,24.9682049 57.0568599,23.5058186 C57.0568599,22.0434321 57.7864624,21.0411223 58.9013604,21.0411223 C60.0162586,21.0411223 60.8483332,22.0311086 60.8483332,23.4113385 C60.8647289,24.5204518 60.4384442,25.8760348 58.9997338,25.8760348 L58.9833383,25.8760348 Z" id="Shape" fill="#FFFFFF" fill-rule="nonzero"></path>
        <path d="M27.4623966,37.1219096 C31.7856075,34.057323 33.2345044,28.2919569 30.8754901,23.5407262 C28.5164759,18.7894955 23.0537746,16.4707596 18.0072787,18.0785963 C12.9607829,19.6864331 9.83699586,24.7408637 10.6487304,29.9850646 C11.460465,35.2292658 15.9653985,39.0977142 21.2607759,39.0977744 L21.5681927,39.0977744 C24.4374158,39.1470683 26.3884875,40.0959763 27.6427477,41.6405193 C28.0526368,41.3652949 31.1104087,38.7362856 31.1104087,38.7362856 C31.1104087,38.7362856 30.0078073,37.421781 27.4623966,37.1219096 Z M21.0230403,36.3414224 C23.7334263,35.775472 25.9682696,33.8625748 26.9500354,31.2682561 C25.5956024,33.8913303 22.6268654,35.2459283 19.7634223,34.5474189 C16.8999792,33.8489094 14.8845549,31.2784731 14.8845549,28.324998 C14.8845549,25.3715228 16.8999792,22.8010865 19.7634223,22.102577 C22.6268654,21.4040676 25.5956024,22.7586656 26.9500354,25.3817399 C25.9682696,22.7874211 23.7334263,20.8745239 21.0230403,20.3085735 L21.2894682,20.3085735 C25.5631317,20.5026041 28.9284046,24.0314618 28.9284046,28.3188362 C28.9284046,32.6062107 25.5631317,36.1350683 21.2894682,36.329099 L21.0230403,36.3414224 Z" id="Shape" fill="#FFFFFF" fill-rule="nonzero"></path>
        <path d="M13.6770055,11.2486542 L13.2056331,10.0163061 C13.0006886,9.47818075 12.8408319,8.90719279 12.1809106,8.84146756 C12.016955,8.84146756 11.7710216,8.81682059 11.3365392,8.81682059 L11.1807814,8.81682059 L11.1807814,11.2815168 L10.5208601,11.2815168 L10.5208601,5.72362682 L11.9349772,5.72362682 C12.6932718,5.72362682 13.0170842,5.78113641 13.320402,5.96188079 C13.7123578,6.22704873 13.9352686,6.68009111 13.9065433,7.15315063 C13.9730754,7.859771 13.455694,8.4867629 12.7506563,8.55391966 C13.3122042,8.71001708 13.5007532,8.96470237 13.9065433,10.0286296 L14.3697179,11.2609777 L13.6770055,11.2609777 L13.6770055,11.2486542 Z M12.8572275,6.37677132 C12.5545424,6.22940715 12.2151157,6.17509483 11.8816916,6.2206739 L11.1725836,6.2206739 L11.1725836,8.27458742 L11.5209893,8.27458742 C12.3120751,8.27458742 13.2384242,8.30745004 13.2384242,7.23119935 C13.2688881,6.90198032 13.1298305,6.57990203 12.8695241,6.37677132 L12.8572275,6.37677132 Z" id="Shape" fill="#FFFFFF" fill-rule="nonzero"></path>
        <path d="M15.7303348,9.64131954 L15.7303348,9.78098565 C15.7303348,10.6436293 16.0951361,11.0667355 16.7468596,11.0667355 C17.2056534,11.0469379 17.6576418,10.9482841 18.0830977,10.7750798 L18.1978666,11.1571077 C17.706632,11.4421077 17.1540511,11.604157 16.5870028,11.6295078 C15.6606537,11.6295078 15.0663146,10.9106381 15.0663146,9.73990738 C15.0663146,8.38021662 15.6934448,7.54632773 16.7263651,7.54632773 C17.7592855,7.54632773 18.22246,8.17482527 18.22246,9.43592818 L18.22246,9.64131954 L15.7303348,9.64131954 Z M16.7960462,8.03515915 C16.2099049,8.03515915 15.8287082,8.44594186 15.7631259,9.23464465 L17.5953299,9.16891942 C17.5994287,8.38432445 17.3330008,8.02283568 16.7960462,8.02283568 L16.7960462,8.03515915 Z" id="Shape" fill="#FFFFFF" fill-rule="nonzero"></path>
        <path d="M21.4489346,12.9768751 C21.1273458,13.2075208 20.737159,13.3219355 20.3422344,13.3013934 C19.8918082,13.2873149 19.4440294,13.2267467 19.0059962,13.120649 L19.0633806,12.7098663 C19.402982,12.7568666 19.7452861,12.7815662 20.0881031,12.7838072 C20.6496511,12.7838072 21.0144523,12.6523568 21.1620124,12.3730245 C21.3008752,12.0469063 21.3490334,11.6891908 21.3013746,11.3378521 L21.3013746,11.1160295 C20.9206176,11.3656131 20.4840266,11.516636 20.0307187,11.5555669 C19.1863473,11.5555669 18.7026783,10.7874033 18.7026783,9.56737865 C18.7026783,8.34735401 19.2806218,7.54632773 20.1249931,7.54632773 C20.5508734,7.58590796 20.9611882,7.72673313 21.321869,7.95711044 L21.321869,7.61616079 L21.9162082,7.61616079 L21.9162082,11.2598034 C21.9121092,12.3730245 21.8137359,12.6811115 21.4489346,12.9768751 Z M21.3013746,8.38843228 C20.9814593,8.23055437 20.6327844,8.13970123 20.2766521,8.12142352 C19.6905108,8.12142352 19.3585007,8.62668625 19.3585007,9.5304082 C19.3585007,10.5409337 19.6495218,11.0133338 20.2356632,11.0133338 C20.6059976,10.9897311 20.9680948,10.8934266 21.3013746,10.7298937 L21.3013746,8.38432445 L21.3013746,8.38843228 Z" id="Shape" fill="#FFFFFF" fill-rule="nonzero"></path>
        <path d="M25.4483034,11.4446556 L25.4483034,11.1283529 C25.0335748,11.3575741 24.5756585,11.4974871 24.1038675,11.5391356 C23.7664773,11.5647346 23.4382269,11.4217727 23.2267051,11.1571077 C23.0627494,10.9352851 23.0299583,10.746325 23.0299583,10.1383666 L23.0299583,7.54632773 L23.640693,7.54632773 L23.640693,9.9411909 C23.640693,10.5203945 23.6079018,10.9763633 24.2924165,10.9763633 C24.682079,10.9679842 25.0674508,10.8929646 25.4319079,10.7545407 L25.4319079,7.55043556 L26.0426425,7.55043556 L26.0426425,11.4528713 L25.4483034,11.4528713 L25.4483034,11.4446556 Z" id="Shape" fill="#FFFFFF" fill-rule="nonzero"></path>
        <polygon id="Shape" fill="#FFFFFF" fill-rule="nonzero" points="27.0882341 11.5420722 27.0882341 5.65966389 27.6989687 5.65966389 27.6989687 11.5379644 27.0882341 11.5379644"></polygon>
        <path d="M30.8996834,11.5699141 L30.8996834,11.2289645 C30.542789,11.4671242 30.1304565,11.6086418 29.7028075,11.6397472 C29.1986439,11.6397472 28.7026783,11.2495036 28.7026783,10.407399 C28.7026783,9.77890151 28.9732051,9.40508924 29.4363796,9.29007008 C29.9132413,9.2011313 30.3988025,9.16804665 30.8832877,9.19148224 L30.8832877,9.03538482 C30.8832877,8.39045596 30.9160789,8.09880024 30.1577842,8.09880024 C29.7693006,8.10728276 29.3824,8.15128208 29.0018973,8.2302507 L28.9363151,7.819468 C29.4167489,7.65867404 29.9179559,7.56873055 30.4242121,7.55245924 C30.7487644,7.51692328 31.0709745,7.63725399 31.2931768,7.87697758 C31.4571324,8.08236893 31.4981213,8.32473073 31.4981213,9.03538482 L31.4981213,11.5452671 L30.9037823,11.5452671 L30.8996834,11.5699141 Z M30.8996834,9.62280408 C29.645423,9.71317627 29.3544018,9.89802849 29.3544018,10.4443695 C29.3544018,10.883907 29.5593463,11.1057296 29.8831586,11.1057296 C30.2344196,11.0589059 30.5769152,10.9606389 30.8996834,10.8140739 L30.8996834,9.60637277 L30.8996834,9.62280408 Z" id="Shape" fill="#FFFFFF" fill-rule="nonzero"></path>
        <path d="M33.435623,11.6547419 C33.1518379,11.6756509 32.8828058,11.5255041 32.7511083,11.272714 C32.6625766,11.0269994 32.6317201,10.7641474 32.6609327,10.5045504 L32.6609327,8.11790285 L32.0010114,8.11790285 L32.0010114,7.7769532 L32.6609327,7.70301231 L32.6609327,6.63497728 L33.2716673,6.63497728 L33.2716673,7.67014969 L34.3619721,7.67014969 L34.3619721,8.11790285 L33.2716673,8.11790285 L33.2716673,10.2211103 C33.2716673,10.8989018 33.2716673,10.9071174 33.3290518,11.0098131 C33.3998803,11.1066065 33.5177321,11.1569996 33.6364686,11.1412636 C33.8893545,11.1322288 34.1394486,11.0851473 34.3783677,11.0015974 L34.4931366,11.3836254 C34.1646213,11.5503183 33.8036549,11.6428598 33.435623,11.6547419 Z" id="Shape" fill="#FFFFFF" fill-rule="nonzero"></path>
        <path d="M35.5953251,9.64131954 L35.5953251,9.78098565 C35.5953251,10.6436293 35.9601263,11.0667355 36.6118499,11.0667355 C37.0706437,11.0469379 37.5226321,10.9482841 37.948088,10.7750798 L38.0628569,11.1571077 C37.5716223,11.4421077 37.0190414,11.604157 36.4519931,11.6295078 C35.5256439,11.6295078 34.9313049,10.9106381 34.9313049,9.73990738 C34.9313049,8.38021662 35.5584351,7.54632773 36.5913554,7.54632773 C37.6242756,7.54632773 38.0874503,8.17482527 38.0874503,9.43592818 L38.0874503,9.64131954 L35.5953251,9.64131954 Z M36.6610365,8.03515915 C36.0748952,8.03515915 35.6936985,8.44594186 35.6281162,9.23464465 L37.4603201,9.16891942 C37.4603201,8.38432445 37.1938923,8.02283568 36.6569376,8.02283568 L36.6610365,8.03515915 Z" id="Shape" fill="#FFFFFF" fill-rule="nonzero"></path>
        <path d="M41.3423635,11.6265743 L41.3423635,11.277409 C40.9474503,11.5289128 40.4971545,11.6798088 40.0307187,11.7169465 C39.1863473,11.7169465 38.7026783,10.9569985 38.7026783,9.68767993 C38.7026783,8.41836137 39.2806218,7.63376641 40.1249931,7.63376641 C40.5542434,7.66946942 40.9681176,7.81054992 41.3300668,8.04454911 L41.3300668,5.72362682 L41.9408014,5.72362682 L41.9408014,11.6019273 L41.3423635,11.6019273 L41.3423635,11.6265743 Z M41.3423635,8.46354746 C41.0134392,8.30646746 40.6569032,8.21574337 40.2930476,8.1965387 C39.7069063,8.1965387 39.3748962,8.70180144 39.3748962,9.638386 C39.3748962,10.6899897 39.6659175,11.1623898 40.2520587,11.1623898 C40.6306106,11.1410336 41.0011851,11.0446976 41.3423635,10.8789498 L41.3423635,8.45943963 L41.3423635,8.46354746 Z" id="Shape" fill="#FFFFFF" fill-rule="nonzero"></path>
        <path d="M46.8903207,11.6964074 C46.4509921,11.6517243 46.029037,11.5008989 45.6606537,11.2568699 L45.6606537,11.6060352 L45.0663146,11.6060352 L45.0663146,5.72362682 L45.6893459,5.72362682 L45.6893459,8.04454911 C46.0820572,7.80568068 46.5262579,7.66480432 46.9845952,7.63376641 C47.8289666,7.63376641 48.3126356,8.39371441 48.3126356,9.66303297 C48.3126356,10.9323515 47.738791,11.6964074 46.8903207,11.6964074 Z M46.7755518,8.16778392 C46.3984397,8.19230944 46.0289559,8.28557782 45.685247,8.44300834 L45.685247,10.8625185 C46.0129323,11.0242053 46.3698555,11.1178224 46.734563,11.1377429 C47.3207042,11.1377429 47.6527142,10.6324802 47.6527142,9.69589558 C47.6486154,8.64018403 47.3616931,8.16778392 46.771453,8.16778392 L46.7755518,8.16778392 Z" id="Shape" fill="#FFFFFF" fill-rule="nonzero"></path>
        <path d="M50.5553766,12.0895845 C50.2151687,12.9850908 50.0020265,13.1822665 49.3257096,13.1822665 C49.1761956,13.1819041 49.0268952,13.1709224 48.8789306,13.1494038 L48.9281172,12.7386211 L49.1740507,12.7386211 C49.7274008,12.7386211 49.7519941,12.7057585 50.1003999,11.8102522 L50.2561576,11.3994695 L48.7026783,7.54632773 L49.3830941,7.54632773 L50.5717721,10.6189824 L51.6620769,7.54632773 L52.252317,7.54632773 L50.5553766,12.0895845 Z" id="Shape" fill="#FFFFFF" fill-rule="nonzero"></path>
        <rect id="Rectangle-3-Copy-3" stroke="#FFFFFF" stroke-width="2" x="1.04361106" y="1.04361106" width="97.8609489" height="44.1787614" rx="7.40963855"></rect>
      </g>
    </g>
  </g>
</svg>
