<svg width="34" height="34" xmlns="http://www.w3.org/2000/svg"><g transform="translate(1 1)" fill="none" fill-rule="evenodd"><path d="M20.97 10.083h-2.147v.066h-.415c-.154.048-.292.156-.485.198-.118.197-.334.365-.415.595-.204.577-.07 2.033-.07 2.775h3.393l-.416 3.236h-2.977v8.324h-3.461v-8.324H11v-3.236h2.977c-.009-1.115-.165-3.042.138-3.899.512-1.444 1.423-2.254 2.977-2.708h.416c.89-.243 2.5-.008 3.461 0v2.973z" fill="#FFF"/><circle stroke="#FFF" stroke-width="1.5" cx="16" cy="16" r="16"/></g></svg>