<svg width="34" height="34" xmlns="http://www.w3.org/2000/svg"><g transform="translate(1 1)" fill="none" fill-rule="evenodd"><circle stroke="#FFF" stroke-width="1.5" cx="16" cy="16" r="16"/><path d="M24.673 13.852V18.7h-.037v.413l-.073.977-.256 1.014h-.036l-.036.188h-.037l-.037.15h-.036v.113h-.037l-.036.15h-.036v.075l-.074.038-.036.15h-.037l-.037.112-.072.038v.075l-.11.075v.075l-.22.188v.075l-.218.189-.037.074h-.073l-.183.226h-.073l-.073.113H22.7l-.037.075-.11.037v.037c-.048.014-.096.026-.145.039l-.036.074-.147.038v.038l-.146.037v.038h-.11v.037h-.073v.038l-.182.037v.038l-.987.263-.95.076h-.401c-.213.06-.569.037-.84.037h-4.348c-1.025 0-2.09-.024-2.85-.301l-.365-.075v-.038l-.183-.037v-.038l-.146-.037v-.038l-.329-.113-.036-.074c-.05-.013-.098-.025-.146-.039v-.037l-.11-.037-.037-.075h-.073l-.072-.113h-.074l-.182-.226h-.073a40.05 40.05 0 0 1-.183-.225l-.073-.038v-.075l-.22-.188v-.075l-.11-.075v-.075l-.072-.038v-.075l-.073-.037-.037-.15-.072-.038-.11-.338h-.037l-.037-.15h-.036v-.113h-.036v-.075h-.037v-.113h-.036v-.113h-.037l-.037-.263h-.036v-.15h-.037a657.19 657.19 0 0 0-.146-1.014v-.751c-.085-.314-.036-.823-.036-1.203v-4.132c0-.29-.026-.673.036-.902.06-.216-.016-.557.037-.75v-.34h.036v-.3h.037v-.187h.036v-.188h.037v-.15h.036l.037-.263h.037v-.112h.036v-.114h.037v-.075h.036v-.112h.036v-.076h.037v-.112h.037l.036-.15h.037l.037-.15.072-.038.037-.15h.036l.037-.113.073-.038v-.075L9 8.931l.037-.113.219-.187v-.075l.073-.038.183-.225h.073l.182-.226.11-.037.036-.075h.073l.037-.075.11-.039v-.037l.146-.037.036-.075.877-.376h.146v-.037h.11V7.24h.146v-.038h.183v-.037h.182v-.038h.293V7.09h.328v-.037c.21-.06.588.09.73-.038h4.86c.38 0 .89-.052 1.206.038h.401c.243 0 .471.02.658.075h.292v.038h.183v.037h.183v.038h.146v.038l.255.037v.038h.11v.037h.11v.037h.073v.039h.11v.037h.072v.037h.11v.038l.146.038v.037l.147.038.036.075.146.037.036.076h.073l.037.075h.073l.073.112h.073l.183.226h.073l.183.225.073.038v.075l.219.187v.076l.11.075v.075l.072.038.037.113h.037l.036.15.074.037.365.902v.15h.036v.112h.037v.151h.036v.188h.037v.188h.036c.025.325.05.65.073.976v.413c.1.367.037.956.037 1.39zm-5.736.677h-.036l-.074-.226h-.036v-.075h-.036l-.037-.15-.073-.037v-.076a4.589 4.589 0 0 0-.073-.037v-.076l-.22-.187v-.076l-.073-.037v-.037h-.072l-.183-.226h-.073l-.037-.075-.11-.038v-.037l-.219-.075v-.038l-.219-.075v-.037h-.11c-.336-.138-.679-.19-1.168-.188-.256.062-.512.124-.768.188v.037l-.219.075v.038h-.073v.037l-.146.038-.036.075h-.074l-.036.075h-.073l-.183.226h-.073l-.036.074h-.037v.076l-.22.187v.076a4.589 4.589 0 0 0-.072.037v.076l-.073.037v.075h-.037v.075h-.036v.075h-.037v.076h-.037l-.036.15h-.037v.113h-.036v.112h-.036v.15h-.037v.15h-.037v.264h-.036c-.07.258.057.78.11.939l.072.376h.037l.073.225h.037v.075h.036l.037.15.073.038v.075l.073.037v.075c.073.064.146.126.219.188v.075l.073.038v.038h.073l.183.225h.073l.036.076h.074l.036.074h.073v.038h.073v.038h.073v.037h.073v.038l.146.037v.038h.11v.037h.11v.037h.146v.039h.146v.037h.292v.037h.438v-.037h.293v-.037H17v-.039h.146v-.037h.11v-.037h.109v-.038l.22-.075v-.037h.072v-.038l.147-.038.036-.074h.073l.037-.076h.073l.183-.225h.072a3.22 3.22 0 0 0 .037-.076h.037v-.075c.073-.062.146-.124.219-.188v-.075l.073-.037v-.075l.073-.038v-.075h.037v-.075h.036v-.075h.036v-.075h.037l.037-.15h.036l.073-.376c.171-.528.109-1.149-.073-1.615v-.113zm2.777-3.118c-.081.356-.64.753-1.096.601h-.147v-.038H20.4v-.037h-.11c-.013-.025-.024-.05-.036-.076h-.073l-.074-.112-.146-.113v-.075l-.073-.038v-.112h-.036v-.075h-.037v-.15h-.037c-.066-.234.084-.564.147-.677v-.075l.109-.075v-.075l.073-.038v-.037h.074l.036-.076h.073l.036-.075h.074v-.037h.146v-.038c.767-.021 1.008.184 1.205.751.054.156.066.568-.036.677zm-1.315 5.56l-.037.225h-.037l-.036.15h-.036v.075h-.037v.113h-.036v.075h-.037v.075l-.073.038-.037.15h-.037l-.036.113-.073.037v.076l-.073.037v.075l-.11.075v.076l-.182.15v.075a33.06 33.06 0 0 0-.22.188l-.036.075h-.073l-.146.187h-.073c-.024.039-.05.076-.073.113h-.074l-.036.075h-.073l-.036.075h-.074l-.036.076-.146.037-.037.076h-.073v.037h-.073v.038h-.11v.037h-.073v.037c-.048.014-.097.026-.146.039v.037h-.11v.037h-.109v.038h-.11v.038h-.146v.037h-.146v.038h-.182v.037h-.22v.038h-.62c-.681 0-1.201-.14-1.645-.376l-.329-.112-.036-.076-.146-.037v-.038a8.579 8.579 0 0 1-.11-.038l-.036-.075h-.073l-.037-.075h-.073a9.932 9.932 0 0 1-.073-.113h-.073l-.147-.187h-.072l-.183-.226-.073-.037v-.075l-.183-.15v-.076l-.11-.075v-.075l-.073-.037c-.011-.038-.024-.076-.036-.113h-.037v-.076a9.067 9.067 0 0 0-.073-.037l-.036-.15-.073-.038v-.075h-.036v-.075h-.037v-.113h-.037v-.074h-.036l-.037-.151h-.037l-.109-.489c-.116-.354-.146-.706-.146-1.202v-.488h.036v-.225h.037v-.189h.037v-.15h.036v-.15h.037v-.113h.036v-.112h.036v-.113h.037l.037-.15h.036v-.075h.037v-.112h.037v-.076h.036v-.075l.073-.038.036-.15h.037a5.46 5.46 0 0 0 .036-.113l.073-.037v-.075l.074-.038v-.075l.11-.076v-.074l.182-.15v-.076l.22-.188c.012-.024.023-.05.036-.074h.072l.147-.189h.073l.073-.112h.073l.037-.075h.073l.036-.076h.073l.037-.074.146-.038.036-.075h.074v-.038h.072v-.037h.11v-.038h.073v-.038l.146-.037v-.038h.11v-.037h.11v-.038h.11v-.037h.145v-.038h.147v-.038c.137-.044.308.01.401-.074h1.096v.037h.22v.037h.182v.038h.146v.038h.146v.037h.11v.038h.11v.037h.11v.038l.145.037v.038h.073v.038h.11v.037h.073v.038h.073c.013.024.024.05.037.075l.146.038v.037l.11.037.036.076h.073l.036.075h.074l.073.112h.073l.146.189h.073l.183.225.073.037v.076l.182.15v.074l.11.076v.075l.073.038.037.112h.036v.075l.073.038.037.15.073.038.11.338c.409.817.515 2.19.146 3.156zm2.74-3.72v-.676c0-.399-.018-.882-.11-1.202v-.226h-.037l-.036-.3h-.037a61.893 61.893 0 0 0-.073-.338h-.036c-.024-.075-.05-.15-.073-.225H22.7v-.075h-.037l-.036-.151h-.037v-.075l-.072-.037-.037-.113h-.037a.306.306 0 0 1-.072-.15h-.074v-.075c-.09-.055-.102-.118-.219-.15v-.076c-.082-.021-.092-.031-.146-.075V9.27l-.11-.038-.036-.076a11.288 11.288 0 0 1-.146-.037v-.037h-.073v-.038h-.074v-.038h-.073V8.97a418.14 418.14 0 0 0-.767-.263h-.22v-.038l-1.314-.074h-.512c-.264-.077-.697-.038-1.023-.038H15.54c-.438 0-1.098-.068-1.462.038h-.657c-.388 0-.86.018-1.17.112h-.219v.037l-.292.038v.037l-.329.076v.037l-.219.075v.038h-.073v.038l-.146.037v.037H10.9c-.012.026-.025.05-.036.076l-.11.038v.037a.292.292 0 0 1-.147.075v.075h-.072c-.053.093-.115.105-.146.226h-.074c-.02.084-.03.095-.073.15h-.036l-.037.113-.073.037-.036.15h-.037v.076h-.037v.075H9.95v.075h-.037l-.256.788v.226h-.036l-.073 1.353v.563h-.036v3.72c0 .278-.024.645.036.863V19h.037v.338l.072.676h.037l.037.301h.036l.074.338h.036l.073.225h.036v.075h.037l.037.15h.036v.076l.073.037.037.113h.036c.043.056.05.067.073.15h.074v.076c.09.054.101.118.218.15v.075c.082.022.093.031.147.075v.038l.11.037.036.075.146.038v.037h.073v.038h.073v.038h.073v.037l.767.263h.22v.038l1.315.075h.548v.037h3.617c.271 0 .628.025.84-.037h1.096v-.038h.328l.658-.075v-.037l.293-.038v-.038l.328-.075v-.037l.22-.075v-.038h.073v-.038l.146-.037v-.038h.073l.036-.075.11-.037v-.038a.3.3 0 0 1 .146-.075v-.075h.073c.053-.093.115-.105.146-.225h.074c.02-.084.03-.095.072-.15h.037l.037-.114.072-.037.037-.15h.036v-.076h.037v-.075h.037v-.075h.036l.256-.789v-.225h.037l.072-1.353v-.526c.074-.27.037-.716.037-1.05v-2.105c0-.45.066-1.13-.037-1.503z" fill="#FFF"/></g></svg>