<svg width="34" height="34" xmlns="http://www.w3.org/2000/svg"><g transform="translate(1 1)" fill="none" fill-rule="evenodd"><path d="M23.536 16.28v5.674h-3.029v-4.42c0-1.067.033-1.964-.398-2.591l-.08-.062-.119-.144h-.04c-.013-.02-.027-.04-.04-.062a5.61 5.61 0 0 1-.08-.02v-.02h-.04v-.021l-.12-.041v-.02a8.981 8.981 0 0 0-.119-.021v-.02l-.358-.063-.518.02v.022l-.22.02v.02h-.06v.021h-.06v.02h-.059v.021h-.04v.02h-.06v.021h-.04v.02h-.04l-.02.042-.079.02-.02.042h-.04l-.06.082h-.04l-.079.103-.04.02v.041c-.02.015-.04.028-.06.041v.042l-.06.04-.02.083a.906.906 0 0 1-.04.02l-.019.083h-.02a6.044 6.044 0 0 0-.02.082h-.02l-.02.103h-.02l-.04.185h-.02l-.04.247h-.02l-.039.431h-.02v.309h-.02v5.284h-3.009v-9.972c.077-.029.212-.02.319-.02H17c.04.109.02.308.02.452v.925h.06c.026-.12.104-.183.16-.267v-.041c.02-.015.04-.028.06-.041v-.042l.1-.082v-.04l.178-.165.08-.103h.04l.08-.103h.04l.04-.062h.04l.04-.062h.039l.02-.04h.04l.02-.042.08-.02.02-.042.119-.04.02-.042h.04v-.02h.04v-.02h.06v-.021h.039v-.021l.08-.02v-.021l.12-.02v-.021h.04v-.02h.059V11.9h.06v-.02c.046-.008.093-.015.14-.021v-.021l.178-.02c.2-.064.395-.071.658-.083l.2-.02v.02h.358l.518.062v.02l.2.02v.022h.08v.02l.138.02v.021h.06v.02h.06v.021h.06v.02l.12.021v.02l.08.022v.02h.059v.02c.026.007.053.015.08.021v.02c.026.008.053.015.08.021a.953.953 0 0 0 .02.041l.119.042v.02l.06.02c.006.015.012.028.02.042h.04l.04.061h.039l.04.062h.04c.052.062.106.124.16.186h.039l.02.061.14.124v.04l.079.062.02.062.04.02v.042l.04.02.02.082.04.02c.006.028.012.056.02.083l.04.02c.006.028.012.056.02.083h.019v.041h.02l.04.123h.02l.219.659.04.267h.02v.082h.02v.123h.02v.103h.02v.144h.02v.164h.02v.185h.02v.227h.02v.329c.033.125.019.334.019.493M12.478 9.103v.103h-.02v.082h-.02v.062h-.02v.062h-.02v.061h-.02l-.02.083h-.02v.062l-.04.02-.04.123h-.02l-.02.062-.04.02v.042l-.079.061v.042l-.08.061-.12.144h-.039l-.06.082h-.04l-.02.041h-.04l-.02.042h-.04v.02h-.039v.02h-.04v.021h-.04v.02h-.04v.021c-.026.008-.053.015-.08.02v.021h-.059v.02h-.06v.022h-.08v.02h-.08v.02h-.099v.021h-.18v.02c-.06.018-.149-.01-.178-.02h-.18v-.02h-.12v-.02h-.079v-.021h-.06v-.021h-.06v-.02h-.06v-.021l-.12-.041v-.02h-.039v-.021l-.12-.041-.02-.042h-.04l-.019-.04h-.04c-.027-.034-.053-.07-.08-.103h-.04l-.12-.144a.544.544 0 0 0-.04-.02v-.042l-.079-.062v-.04l-.06-.042-.02-.082-.039-.02a6.044 6.044 0 0 1-.02-.083h-.02a10.955 10.955 0 0 0-.04-.123h-.02a18.676 18.676 0 0 0-.04-.186h-.02v-.061h-.02v-.103h-.02c-.02-.07-.044-.505-.02-.596h.02v-.124h.02v-.081h.02v-.082h.02V8.22h.02v-.062c.18-.422.491-.78.877-.987l.339-.123c.062-.022.156-.003.199-.041.168-.003.445-.023.578.02v.02h.08v.021h.08v.02h.06v.021h.059v.02h.04v.022h.06v.02l.08.02v.021h.039l.02.041.08.02a.953.953 0 0 0 .02.042h.04l.04.062h.04l.099.123h.04v.02l.06.042v.04l.119.104v.04l.04.021v.041l.04.02v.041a.913.913 0 0 0 .04.022l.02.081h.02c.012.041.026.082.04.124h.019v.062h.02v.041h.02v.061h.02v.083c.067.208.11.522.04.76m-.22 3.187v9.664H9.25V11.96h2.989c.028.08.02.22.02.33" fill="#FFF"/><circle stroke="#FFF" stroke-width="1.5" cx="16" cy="16" r="16"/></g></svg>