<?xml version="1.0" encoding="UTF-8" standalone="no"?>
<svg xmlns="http://www.w3.org/2000/svg" xmlns:xlink="http://www.w3.org/1999/xlink" width="109px" height="51px" viewBox="0 0 109 51">
  <!-- Generator: Sketch 47 (45396) - http://www.bohemiancoding.com/sketch -->
  <title>logo-bsi</title>
  <desc>Created with Sketch.</desc>
  <defs></defs>
  <g id="Homepage-UK-final" stroke="none" stroke-width="1" fill="none" fill-rule="evenodd">
    <g id="babylon-homepage-r1" transform="translate(-1128.000000, -7548.000000)" fill="#FFFFFF">
      <g id="logo-bsi" transform="translate(1128.000000, 7548.000000)">
        <g id="Page-1">
          <path d="M48.422502,25.5914434 C48.422502,38.3193315 38.117015,48.6370238 25.4049791,48.6370238 C12.6925869,48.6370238 2.38745621,38.3193315 2.38745621,25.5914434 C2.38745621,12.8635552 12.6925869,2.54586294 25.4049791,2.54586294 C38.117015,2.54586294 48.422502,12.8635552 48.422502,25.5914434 M83.466002,48.658779 C83.3324235,48.658779 83.1974203,48.6573524 83.064198,48.6552126 L83.0481686,48.6552126 L83.0321392,48.6552126 L36.0385346,48.6470098 C44.7108026,44.619793 50.7428484,35.8249678 50.7428484,25.6406601 C50.7428484,15.4310308 44.6801686,6.61801678 35.9726359,2.60506573 L81.2229529,2.61255524 L81.2229529,2.6146951 L83.466002,2.6146951 C96.1449105,2.6146951 106.461084,12.9416601 106.461084,25.6356671 C106.461084,38.3303874 96.1449105,48.658779 83.466002,48.658779 M83.466002,0.368198601 L83.466002,0.366415385 L27.1564595,0.356786014 C24.4777667,0.351436364 21.9550935,0.471268531 20.2997895,0.813646154 C8.67704118,3.0473035 0.00014248366,13.3018699 0.00014248366,25.6238979 C0.00014248366,37.082849 7.50440065,46.7532336 17.902502,49.8488979 C17.9644824,49.8681566 18.0282438,49.8834923 18.0905804,49.9023944 C18.318198,49.9683734 18.5440346,50.0379189 18.7741458,50.0974783 C20.8946588,50.6763105 23.1719039,50.8917231 27.5906784,50.8917231 L83.0321392,50.9013524 C83.1767601,50.9034923 83.321381,50.9049189 83.466002,50.9049189 C97.4062471,50.9049189 108.704133,39.591835 108.704133,25.6356671 C108.704133,11.6794993 97.4062471,0.368198601 83.466002,0.368198601" id="Fill-1"></path>
          <path d="M32.477298,14.2084573 C32.9250529,14.2084573 33.2940856,13.8375483 33.2940856,13.3874643 C33.2940856,12.9384503 32.9250529,12.5675413 32.477298,12.5675413 C32.0274059,12.5675413 31.6576608,12.9384503 31.6576608,13.3874643 C31.6576608,13.8375483 32.0274059,14.2084573 32.477298,14.2084573" id="Fill-4"></path>
          <path d="M29.4839301,8.45758322 L29.4839301,12.6923664 C29.4839301,13.6578 29.9448647,14.1521077 30.9661163,14.1521077 C31.1007634,14.1521077 31.2133255,14.1292825 31.2133255,14.1292825 L31.2133255,13.1064294 C30.853198,13.1064294 30.7406359,12.9951566 30.7406359,12.6813105 L30.7406359,8.45758322 L29.4839301,8.45758322 Z" id="Fill-6"></path>
          <path d="M30.1118199,7.61437133 C30.5613559,7.61437133 30.9314572,7.24488881 30.9314572,6.79516154 C30.9314572,6.34543427 30.5613559,5.97452517 30.1118199,5.97452517 C29.664065,5.97452517 29.2943199,6.34543427 29.2943199,6.79516154 C29.2943199,7.24488881 29.664065,7.61437133 30.1118199,7.61437133" id="Fill-8"></path>
          <path d="M26.8080157,11.7481888 C27.559617,11.8155944 27.7398588,12.0292238 27.7398588,12.444 C27.7398588,12.9386643 27.3020778,13.1412378 26.4044307,13.1412378 C25.6973556,13.1412378 25.1031987,12.9618462 24.732385,12.8263217 L24.732385,13.9051678 C25.113885,14.0624476 25.8092052,14.2076014 26.5836039,14.2076014 C28.378898,14.2076014 28.9744797,13.3655664 28.9744797,12.3994196 C28.9744797,11.3544545 28.5345614,10.8494476 26.8532542,10.7035804 C26.1230255,10.6361748 25.9224797,10.4674825 25.9224797,10.0744615 C25.9224797,9.56945455 26.336751,9.37793706 26.9989438,9.37793706 C27.706019,9.37793706 28.2328523,9.51239161 28.7144471,9.69285315 L28.7144471,8.60366434 C28.2780908,8.4125035 27.7398588,8.32298601 26.9768588,8.32298601 C25.3265418,8.32298601 24.6992575,9.14255245 24.6992575,10.1083427 C24.6992575,11.0737762 25.113885,11.6016084 26.8080157,11.7481888" id="Fill-10"></path>
          <path d="M25.4661402,46.0873091 C25.4661402,46.0873091 37.9630258,24.9187427 38.0542154,24.7133161 L12.8281958,24.7133161 C12.9161794,24.9308685 25.4661402,46.0873091 25.4661402,46.0873091" id="Fill-12"></path>
          <path d="M31.3435912,15.9676364 C28.9673199,15.9676364 26.8236533,17.1185245 25.5185029,19.0722168 C24.2137088,17.1185245 22.071467,15.9676364 19.6944833,15.9676364 C15.8634539,15.9676364 12.7277448,18.9363357 12.564601,22.6472098 L38.3580618,22.6472098 C38.1974114,18.9363357 35.1129964,15.9676364 31.3435912,15.9676364" id="Fill-14"></path>
          <path d="M20.5851487,9.71489371 C20.808848,9.59185175 21.2031716,9.38892168 21.7962598,9.38892168 C22.8965899,9.38892168 23.0650768,10.2313133 23.0650768,11.265579 C23.0650768,12.3098308 22.8965899,13.1411664 21.7962598,13.1411664 C21.2031716,13.1411664 20.808848,12.938593 20.5851487,12.8151944 L20.5851487,9.71489371 Z M20.2713284,13.6237049 C20.7643219,13.9828448 21.3371062,14.2075301 22.0890637,14.2075301 C23.726201,14.2075301 24.332469,13.106572 24.332469,11.265579 C24.332469,9.43457203 23.726201,8.32291469 22.0890637,8.32291469 C21.5280343,8.32291469 20.9890899,8.50230629 20.5851487,8.76015944 L20.5851487,5.64915944 L19.3295114,5.64915944 L19.3295114,14.0734322 L20.0693578,14.0734322 L20.2713284,13.6237049 Z" id="Fill-16"></path>
          <polygon id="Fill-18" points="53.6269314 13.2279021 54.4814771 13.2279021 54.4814771 7.48737063 53.6269314 7.48737063"></polygon>
          <path d="M55.6305366,12.4255972 C55.9600301,12.4787371 56.4850824,12.5504224 56.9837752,12.5504224 C57.4735627,12.5504224 57.9455399,12.4787371 58.2034353,12.2290867 C58.3548242,12.086786 58.4438765,11.8906322 58.4438765,11.6409818 C58.4438765,11.0796252 58.0965725,10.8920308 57.1084484,10.5981566 C56.1203242,10.312842 55.4880529,9.90305874 55.4880529,8.93120559 C55.4880529,8.45009371 55.6928732,8.05778601 56.0401771,7.7903035 C56.4320072,7.48715664 56.9303438,7.3979958 57.4557523,7.3979958 C57.9811608,7.3979958 58.541834,7.47824056 59.0405268,7.57631748 L58.9336641,8.28924755 C58.5952654,8.22719161 58.0791183,8.16477902 57.6071412,8.16477902 C57.2153111,8.16477902 56.8412915,8.20935944 56.6186608,8.36949231 C56.4405562,8.50323357 56.3515039,8.6729958 56.3515039,8.90445734 C56.3515039,9.49256224 56.8056706,9.66232448 57.7496248,9.94728252 C58.6754124,10.2329538 59.3076837,10.6249049 59.3076837,11.6320657 C59.3076837,12.1666741 59.1028634,12.6035622 58.7288438,12.897793 C58.3281085,13.218772 57.7585301,13.316849 57.1529745,13.316849 C56.5923013,13.316849 56.0134614,13.2366042 55.5236739,13.1474434 L55.6305366,12.4255972 Z" id="Fill-20"></path>
          <path d="M64.0271699,10.357458 C64.0271699,8.84208042 63.5730033,8.16481469 62.424585,8.16481469 C61.2761667,8.16481469 60.822,8.84208042 60.822,10.357458 C60.822,11.8728357 61.2761667,12.5501014 62.424585,12.5501014 C63.5730033,12.5501014 64.0271699,11.8728357 64.0271699,10.357458 M59.9496438,10.357458 C59.9496438,8.41410839 60.6884216,7.39803147 62.424585,7.39803147 C64.1607484,7.39803147 64.8995261,8.41410839 64.8995261,10.357458 C64.8995261,12.300451 64.1607484,13.3168846 62.424585,13.3168846 C60.6884216,13.3168846 59.9496438,12.300451 59.9496438,10.357458" id="Fill-21"></path>
          <polygon id="Fill-22" points="65.3461056 13.2276881 67.5720565 7.48715664 68.2663082 7.48715664 66.0585239 13.2276881"></polygon>
          <polygon id="Fill-23" points="69.0148105 13.2279021 69.8693562 13.2279021 69.8693562 7.48737063 69.0148105 7.48737063"></polygon>
          <polygon id="Fill-24" points="71.0809304 13.2276881 71.0809304 7.48715664 74.4905644 7.48715664 74.4905644 8.24466713 71.9354761 8.24466713 71.9354761 9.89378601 74.0278487 9.89378601 74.0278487 10.6427371 71.9354761 10.6427371 71.9354761 12.4701776 74.4905644 12.4701776 74.4905644 13.2276881"></polygon>
          <path d="M79.2904471,12.8801035 C78.8006595,13.1293972 78.1064078,13.3169916 77.4566824,13.3169916 C76.7175484,13.3169916 76.0140353,13.0940895 75.5869405,12.4967119 C75.2307314,12.0066839 75.0526268,11.2933972 75.0526268,10.357565 C75.0526268,9.35896364 75.2752575,8.6282014 75.6845418,8.1289007 C76.156519,7.56754406 76.8511268,7.39813846 77.607715,7.39813846 C78.1153131,7.39813846 78.6496268,7.46911049 79.094532,7.56754406 L79.014385,8.28939021 C78.658532,8.21806154 78.1242183,8.16456503 77.6611464,8.16456503 C77.1179275,8.16456503 76.6195908,8.28047413 76.3168131,8.6816979 C76.040751,9.05581678 75.924983,9.60861399 75.924983,10.357565 C75.924983,11.0526629 76.0140353,11.587628 76.2544765,11.9621035 C76.5305386,12.398635 76.9936105,12.5502084 77.4919471,12.5502084 C78.0440712,12.5502084 78.5780288,12.3897189 79.0500059,12.2028378 L79.2904471,12.8801035 Z" id="Fill-25"></path>
          <path d="M53.5200686,22.143772 L53.5200686,21.4665063 C55.1048431,20.0848699 56.2358072,19.0060238 56.2358072,18.0520028 C56.2358072,17.3390727 55.7014935,17.0808629 55.1048431,17.0808629 C54.6061503,17.0808629 54.0276667,17.2409958 53.6536471,17.3929259 L53.4132059,16.7149469 C53.8584673,16.5013175 54.5263595,16.3140797 55.1671797,16.3140797 C56.315598,16.3140797 57.1081634,16.8932685 57.1081634,18.0256112 C57.1081634,19.2735063 55.8525261,20.3523524 54.6332222,21.3862615 L57.1883105,21.3862615 L57.1883105,22.143772 L53.5200686,22.143772 Z" id="Fill-26"></path>
          <path d="M58.8541582,22.143772 C59.352851,20.2186112 59.9673118,18.7923944 60.8752889,17.151835 L58.0081614,17.151835 L58.0081614,16.4032406 L61.7565503,16.4032406 L61.7565503,17.1076112 C60.8485732,18.7385413 60.2341124,20.164758 59.7710405,22.143772 L58.8541582,22.143772 Z" id="Fill-27"></path>
          <path d="M65.8708373,19.273542 C65.8708373,17.9097378 65.7906902,17.0630664 64.6600824,17.0630664 C63.5113078,17.0630664 63.4404222,17.9097378 63.4404222,19.273542 C63.4404222,20.6284301 63.5113078,21.4932902 64.6600824,21.4932902 C65.7906902,21.4932902 65.8708373,20.6284301 65.8708373,19.273542 M62.5855203,19.273542 C62.5855203,17.3483811 62.9862556,16.3141154 64.6600824,16.3141154 C66.3250039,16.3141154 66.725383,17.3483811 66.725383,19.273542 C66.725383,21.1897867 66.3250039,22.2329685 64.6600824,22.2329685 C62.9862556,22.2329685 62.5855203,21.1897867 62.5855203,19.273542" id="Fill-28"></path>
          <path d="M71.0002134,19.273542 C71.0002134,17.9097378 70.9200663,17.0630664 69.7894585,17.0630664 C68.640684,17.0630664 68.5697984,17.9097378 68.5697984,19.273542 C68.5697984,20.6284301 68.640684,21.4932902 69.7894585,21.4932902 C70.9200663,21.4932902 71.0002134,20.6284301 71.0002134,19.273542 M67.7148964,19.273542 C67.7148964,17.3483811 68.1156317,16.3141154 69.7894585,16.3141154 C71.4543801,16.3141154 71.8547592,17.3483811 71.8547592,19.273542 C71.8547592,21.1897867 71.4543801,22.2329685 69.7894585,22.2329685 C68.1156317,22.2329685 67.7148964,21.1897867 67.7148964,19.273542" id="Fill-29"></path>
          <polygon id="Fill-30" points="73.7257121 22.143772 73.7257121 17.2677441 72.5327676 17.7224643 72.274516 17.1432755 73.8058592 16.4032406 74.5802578 16.4032406 74.5802578 22.143772"></polygon>
          <polygon id="Fill-31" points="53.6579216 29.395972 54.2738072 29.395972 54.2738072 25.2603357 53.6579216 25.2603357"></polygon>
          <path d="M56.9861261,29.395758 L56.9861261,27.4499119 C56.9861261,27.0711566 56.8130085,26.8914084 56.4856523,26.8914084 C56.2099464,26.8914084 55.9662993,26.9812825 55.7675346,27.0775762 L55.7675346,29.395758 L55.1837078,29.395758 L55.1837078,26.4291986 L55.6132961,26.4291986 L55.6649464,26.698821 C55.8957699,26.5190727 56.2163582,26.3650028 56.5629497,26.3650028 C57.236185,26.3650028 57.5695967,26.7694364 57.5695967,27.3985552 L57.5695967,29.395758 L56.9861261,29.395758 Z" id="Fill-32"></path>
          <path d="M58.5499556,29.395758 L58.5499556,26.9106671 L58.1139556,26.9106671 L58.1139556,26.4801986 L58.5499556,26.4548769 L58.5499556,26.1338979 C58.5499556,25.7997231 58.6333085,25.5686182 58.7807791,25.4206112 C58.9603085,25.2472825 59.2235471,25.1962825 59.5377235,25.1962825 C59.6787824,25.1962825 59.8326647,25.2091217 59.9737235,25.2219608 L59.9416647,25.709849 C59.7941941,25.6970098 59.6595471,25.6970098 59.5441353,25.6970098 C59.3902529,25.6970098 59.2812529,25.7162685 59.2235471,25.7997231 C59.1526614,25.876758 59.1337824,25.9990867 59.1337824,26.1848979 L59.1337824,26.4291986 L59.7813706,26.4291986 L59.7813706,26.9106671 L59.1337824,26.9106671 L59.1337824,29.395758 L58.5499556,29.395758 Z" id="Fill-33"></path>
          <path d="M62.2308428,27.912407 C62.2308428,27.5525538 62.1731369,27.2572531 62.0192546,27.0839245 C61.9038428,26.9491133 61.7243134,26.8784979 61.4934899,26.8784979 C61.2623101,26.8784979 61.0827807,26.9491133 60.967369,27.0839245 C60.8134866,27.2572531 60.7557807,27.5525538 60.7557807,27.912407 C60.7557807,28.2783231 60.8134866,28.5736238 60.967369,28.7405329 C61.0827807,28.8757007 61.2623101,28.9459594 61.4934899,28.9459594 C61.7243134,28.9459594 61.897431,28.8692811 62.0192546,28.7405329 C62.1731369,28.5736238 62.2308428,28.2783231 62.2308428,27.912407 M61.4934899,29.4598825 C61.076369,29.4598825 60.775016,29.3443301 60.557016,29.1324839 C60.2809539,28.8692811 60.1658984,28.4391692 60.1658984,27.912407 C60.1658984,27.3856448 60.2809539,26.9555329 60.557016,26.6923301 C60.775016,26.4801273 61.076369,26.3649315 61.4934899,26.3649315 C61.9102546,26.3649315 62.2116075,26.4801273 62.4296075,26.6923301 C62.7056696,26.9555329 62.8210814,27.3856448 62.8210814,27.912407 C62.8210814,28.4391692 62.7056696,28.8692811 62.4296075,29.1324839 C62.2116075,29.3443301 61.9102546,29.4598825 61.4934899,29.4598825" id="Fill-34"></path>
          <path d="M63.4807095,29.395758 L63.4807095,26.4291986 L63.9167095,26.4291986 L63.9936507,26.7951147 L64.0192977,26.7951147 C64.2504775,26.4609399 64.5261833,26.3714224 64.8980657,26.3714224 C64.9685951,26.3714224 65.0391245,26.3714224 65.1545363,26.3842615 L65.1160657,26.9170867 C65.0006539,26.897828 64.8852422,26.8914084 64.7634186,26.8914084 C64.5133598,26.8914084 64.263301,26.9491846 64.0641801,27.1160937 L64.0641801,29.395758 L63.4807095,29.395758 Z" id="Fill-35"></path>
          <path d="M69.1304716,29.395758 L69.1304716,27.4306531 C69.1304716,27.0583175 68.9509422,26.8914084 68.6239422,26.8914084 C68.3991742,26.8914084 68.1619389,26.9684434 67.9375271,27.096835 C67.9567624,27.2123874 67.9695859,27.3471986 67.9695859,27.462751 L67.9695859,29.395758 L67.3861154,29.395758 L67.3861154,27.4306531 C67.3861154,27.0583175 67.2126415,26.8914084 66.8856415,26.8914084 C66.6484062,26.8914084 66.4432297,26.9556042 66.2248735,27.0711566 L66.2248735,29.395758 L65.6414029,29.395758 L65.6414029,26.4291986 L66.0709912,26.4291986 L66.1222853,26.698821 C66.3338735,26.5379748 66.6355827,26.3650028 67.0138768,26.3650028 C67.3665239,26.3650028 67.6297624,26.499814 67.7836448,26.7434014 C68.0401154,26.5319119 68.3542918,26.3650028 68.7072951,26.3650028 C69.3677069,26.3650028 69.7139422,26.7305622 69.7139422,27.4566881 L69.7139422,29.395758 L69.1304716,29.395758 Z" id="Fill-36"></path>
          <path d="M72.0984062,28.0663343 C71.9509356,28.0538517 71.7521709,28.0470755 71.5722853,28.0470755 C71.1426971,28.0470755 70.9375206,28.2015021 70.9375206,28.5289007 C70.9375206,28.8113622 71.1234618,28.9975301 71.4444062,28.9975301 C71.6816415,28.9975301 71.9252886,28.9140755 72.0984062,28.7792643 L72.0984062,28.0663343 Z M72.2522886,29.3959007 L72.1881709,29.1451804 C71.9637592,29.3441874 71.6559944,29.4597399 71.3222265,29.4597399 C70.7131088,29.4597399 70.3408703,29.0553063 70.3408703,28.5289007 C70.3408703,28.2656979 70.4434585,28.0021385 70.6554029,27.835586 C70.8541676,27.6747399 71.1362853,27.6105441 71.450818,27.6105441 C71.6559944,27.6105441 71.8932297,27.6233832 72.0984062,27.6362224 L72.0984062,27.3858587 C72.0984062,27.2061105 72.0535239,27.090558 71.9765827,27.0135231 C71.8675827,26.9108098 71.6880533,26.8847748 71.450818,26.8847748 C71.1619324,26.8847748 70.8092853,26.9361315 70.6169324,26.9814252 L70.5271676,26.4931804 C70.7836382,26.4161455 71.1619324,26.3647888 71.5017559,26.3647888 C71.8739944,26.3647888 72.1817592,26.4161455 72.3933474,26.5958937 C72.5796448,26.7503203 72.682233,26.9939077 72.682233,27.3537608 L72.682233,29.3959007 L72.2522886,29.3959007 Z" id="Fill-37"></path>
          <path d="M75.0733225,29.2672238 C74.8745578,29.3699371 74.6180873,29.4473287 74.3612605,29.4473287 C73.8803781,29.4473287 73.6046722,29.1773497 73.6046722,28.6377483 L73.6046722,26.9108811 L73.1622605,26.9108811 L73.1622605,26.4804126 L73.6239075,26.4547343 L73.6687899,25.5813147 L74.188499,25.5813147 L74.188499,26.4290559 L75.0156167,26.4290559 L75.0156167,26.9108811 L74.188499,26.9108811 L74.188499,28.5478741 C74.188499,28.7664965 74.2269696,28.9205664 74.4510252,28.9205664 C74.5924402,28.9205664 74.7270873,28.882049 74.8809696,28.8114336 L75.0733225,29.2672238 Z" id="Fill-38"></path>
          <path d="M75.6435065,29.3956154 L76.2269771,29.3956154 L76.2269771,26.4290559 L75.6435065,26.4290559 L75.6435065,29.3956154 Z M75.9320359,25.2410769 C76.1115654,25.2410769 76.2590359,25.3887273 76.2590359,25.5684755 C76.2590359,25.7485804 76.1115654,25.8894545 75.9320359,25.8894545 C75.7525065,25.8894545 75.6114477,25.7485804 75.6114477,25.5684755 C75.6114477,25.3887273 75.7525065,25.2410769 75.9320359,25.2410769 L75.9320359,25.2410769 Z" id="Fill-39"></path>
          <path d="M78.9523333,27.912407 C78.9523333,27.5525538 78.8946275,27.2572531 78.7407451,27.0839245 C78.6253333,26.9491133 78.4458039,26.8784979 78.2149804,26.8784979 C77.9838007,26.8784979 77.8042712,26.9491133 77.6888595,27.0839245 C77.5349771,27.2572531 77.4772712,27.5525538 77.4772712,27.912407 C77.4772712,28.2783231 77.5349771,28.5736238 77.6888595,28.7405329 C77.8042712,28.8757007 77.9838007,28.9459594 78.2149804,28.9459594 C78.4458039,28.9459594 78.6189216,28.8692811 78.7407451,28.7405329 C78.8946275,28.5736238 78.9523333,28.2783231 78.9523333,27.912407 M78.2149804,29.4598825 C77.7978595,29.4598825 77.4965065,29.3443301 77.2785065,29.1324839 C77.0024444,28.8692811 76.8870327,28.4391692 76.8870327,27.912407 C76.8870327,27.3856448 77.0024444,26.9555329 77.2785065,26.6923301 C77.4965065,26.4801273 77.7978595,26.3649315 78.2149804,26.3649315 C78.6317451,26.3649315 78.933098,26.4801273 79.1514542,26.6923301 C79.4268039,26.9555329 79.5422157,27.3856448 79.5422157,27.912407 C79.5422157,28.4391692 79.4268039,28.8692811 79.1514542,29.1324839 C78.933098,29.3443301 78.6317451,29.4598825 78.2149804,29.4598825" id="Fill-40"></path>
          <path d="M82.004084,29.395758 L82.004084,27.4499119 C82.004084,27.0711566 81.8313225,26.8914084 81.5039663,26.8914084 C81.2279042,26.8914084 80.9846134,26.9812825 80.7854925,27.0775762 L80.7854925,29.395758 L80.2016657,29.395758 L80.2016657,26.4291986 L80.6316101,26.4291986 L80.6829042,26.698821 C80.9137278,26.5190727 81.2346722,26.3650028 81.5809075,26.3650028 C82.2541428,26.3650028 82.5879108,26.7694364 82.5879108,27.3985552 L82.5879108,29.395758 L82.004084,29.395758 Z" id="Fill-41"></path>
          <path d="M84.901418,28.8179601 C85.1386533,28.856121 85.5173036,28.9078343 85.8763624,28.9078343 C86.2293657,28.9078343 86.5691892,28.856121 86.7551304,28.6767294 C86.8641304,28.5736594 86.9278918,28.4324287 86.9278918,28.2526804 C86.9278918,27.8482469 86.677833,27.713079 85.9661271,27.5015895 C85.254065,27.2958063 84.7988297,27.0005056 84.7988297,26.3004147 C84.7988297,25.954114 84.9463003,25.6712958 85.1963592,25.4787084 C85.478833,25.260086 85.8378918,25.1962469 86.2161859,25.1962469 C86.5948363,25.1962469 86.9987775,25.2540231 87.3578363,25.3246385 L87.2812513,25.8385615 C87.037248,25.7936245 86.6653657,25.7486874 86.3251859,25.7486874 C86.0430683,25.7486874 85.7737742,25.7804287 85.6134801,25.8963378 C85.4852448,25.9922748 85.4211271,26.1142469 85.4211271,26.2815126 C85.4211271,26.7052049 85.7481271,26.8271769 86.4277742,27.0326035 C87.0949539,27.2380301 87.5505454,27.5204916 87.5505454,28.2462608 C87.5505454,28.6317923 87.4027186,28.9459951 87.1334245,29.1581979 C86.8448951,29.3896594 86.4345422,29.4599182 85.9981859,29.4599182 C85.5942448,29.4599182 85.1771239,29.402142 84.8244768,29.3379462 L84.901418,28.8179601 Z" id="Fill-42"></path>
          <path d="M89.9095761,27.6620077 C89.9095761,27.2190566 89.7816971,26.8659797 89.3068703,26.8659797 C88.877282,26.8659797 88.6717493,27.2511545 88.6461023,27.6620077 L89.9095761,27.6620077 Z M90.4164618,29.2223224 C90.1535794,29.3442944 89.7749291,29.4598469 89.3902232,29.4598469 C88.517867,29.4598469 88.049452,28.9141825 88.049452,27.9316301 C88.049452,27.1163434 88.4216905,26.3648958 89.3261056,26.3648958 C90.0445794,26.3648958 90.4613441,26.8784622 90.4613441,27.6748469 C90.4613441,27.8353364 90.4421088,27.9961825 90.4164618,28.1242175 L88.6400467,28.1242175 C88.6528703,28.3874203 88.7166317,28.5996231 88.8384552,28.7344343 C88.9734585,28.8820846 89.1850467,28.9398608 89.4286938,28.9398608 C89.7368147,28.9398608 90.0378114,28.8564063 90.2818147,28.753693 L90.4164618,29.2223224 Z" id="Fill-43"></path>
          <path d="M93.2180824,29.2223224 C92.9487882,29.350714 92.5704941,29.4598469 92.2046673,29.4598469 C91.4288438,29.4598469 90.9283699,29.0233154 90.9283699,27.9252105 C90.9283699,26.6666161 91.5631346,26.3648958 92.2880203,26.3648958 C92.5765497,26.3648958 92.8654353,26.3969937 93.1087261,26.4547699 L93.0577882,26.942658 C92.8458438,26.9109168 92.6086085,26.8848818 92.3841967,26.8848818 C91.8135497,26.8848818 91.5186085,27.1095671 91.5186085,27.9123713 C91.5186085,28.631721 91.7622556,28.9398608 92.2623732,28.9398608 C92.5509026,28.9398608 92.8205529,28.8564063 93.0577882,28.753693 L93.2180824,29.2223224 Z" id="Fill-44"></path>
          <path d="M95.7313873,29.395758 L95.6861487,29.1453944 C95.4560376,29.3187231 95.1415049,29.4663734 94.7888578,29.4663734 C94.1216781,29.4663734 93.7882663,29.0615832 93.7882663,28.4324643 L93.7882663,26.4291986 L94.3720931,26.4291986 L94.3720931,28.3746881 C94.3720931,28.7791217 94.5448546,28.9331916 94.8910899,28.9331916 C95.1283252,28.9331916 95.3591487,28.8689958 95.5775049,28.7662825 L95.5775049,26.4291986 L96.1613317,26.4291986 L96.1613317,29.395758 L95.7313873,29.395758 Z" id="Fill-45"></path>
          <path d="M97.0128853,29.395758 L97.0128853,26.4291986 L97.4492415,26.4291986 L97.5254703,26.7951147 L97.5514735,26.7951147 C97.7822971,26.4609399 98.0587154,26.3714224 98.4302415,26.3714224 C98.5011271,26.3714224 98.5713003,26.3714224 98.6867121,26.3842615 L98.6485977,26.9170867 C98.5331859,26.897828 98.417418,26.8914084 98.2959507,26.8914084 C98.0451794,26.8914084 97.7954768,26.9491846 97.5967121,27.1160937 L97.5967121,29.395758 L97.0128853,29.395758 Z" id="Fill-46"></path>
          <path d="M99.1739706,29.3956154 L99.7577974,29.3956154 L99.7577974,26.4290559 L99.1739706,26.4290559 L99.1739706,29.3956154 Z M99.4625,25.2410769 C99.6420294,25.2410769 99.7895,25.3887273 99.7895,25.5684755 C99.7895,25.7485804 99.6420294,25.8894545 99.4625,25.8894545 C99.2829706,25.8894545 99.1419118,25.7485804 99.1419118,25.5684755 C99.1419118,25.3887273 99.2829706,25.2410769 99.4625,25.2410769 L99.4625,25.2410769 Z" id="Fill-47"></path>
          <path d="M102.174427,29.2672238 C101.976019,29.3699371 101.719548,29.4473287 101.462721,29.4473287 C100.981839,29.4473287 100.705777,29.1773497 100.705777,28.6377483 L100.705777,26.9108811 L100.263365,26.9108811 L100.263365,26.4804126 L100.725368,26.4547343 L100.769894,25.5813147 L101.289604,25.5813147 L101.289604,26.4290559 L102.116721,26.4290559 L102.116721,26.9108811 L101.289604,26.9108811 L101.289604,28.5478741 C101.289604,28.7664965 101.327718,28.9205664 101.552486,28.9205664 C101.693545,28.9205664 101.827836,28.882049 101.98243,28.8114336 L102.174427,29.2672238 Z" id="Fill-48"></path>
          <path d="M103.251425,30.5645853 C103.424543,30.1087951 103.565958,29.7040049 103.66819,29.395865 L103.35437,29.395865 C103.052305,28.5738021 102.744896,27.4949559 102.475602,26.428949 L103.085076,26.428949 C103.283484,27.3023685 103.501841,28.136914 103.757955,28.9332986 L103.803193,28.9332986 C104.040429,28.2143056 104.290844,27.2831098 104.482841,26.428949 L105.079847,26.428949 C104.752135,27.8034524 104.28372,29.3637671 103.822785,30.5645853 L103.251425,30.5645853 Z" id="Fill-49"></path>
          <path d="M57.0635304,36.5286252 C57.0314716,35.4241007 56.9801775,34.2874783 56.9288833,33.195793 L56.8968245,33.195793 L55.9603507,35.8285343 L55.2999389,35.8285343 L54.363465,33.195793 L54.3314062,33.195793 C54.2801121,34.2874783 54.228818,35.4241007 54.1967592,36.5286252 L53.5744618,36.5286252 C53.6193441,35.1541217 53.6898735,33.7735552 53.7668147,32.3929888 L54.664818,32.3929888 L55.6141154,35.1352196 L55.6461742,35.1352196 L56.5954716,32.3929888 L57.4934748,32.3929888 C57.5700598,33.7735552 57.6409454,35.1541217 57.6858278,36.5286252 L57.0635304,36.5286252 Z" id="Fill-50"></path>
          <path d="M60.0956539,35.1992014 C59.9481833,35.1867189 59.7494186,35.1799427 59.569533,35.1799427 C59.1399448,35.1799427 58.9347683,35.3343692 58.9347683,35.6617678 C58.9347683,35.9442294 59.1207095,36.1303972 59.4416539,36.1303972 C59.6788892,36.1303972 59.9225363,36.0469427 60.0956539,35.9121315 L60.0956539,35.1992014 Z M60.2495363,36.5287678 L60.1854186,36.2780476 C59.9610069,36.4770545 59.6528859,36.592607 59.3194742,36.592607 C58.7103565,36.592607 58.338118,36.1881734 58.338118,35.6617678 C58.338118,35.398565 58.4407062,35.1350056 58.6526507,34.9684531 C58.8514154,34.807607 59.133533,34.7434112 59.4477095,34.7434112 C59.6528859,34.7434112 59.8904775,34.7562503 60.0956539,34.7690895 L60.0956539,34.5187259 C60.0956539,34.3389776 60.0507716,34.2234252 59.9738304,34.1463902 C59.8648304,34.0436769 59.685301,34.017642 59.4477095,34.017642 C59.1591801,34.017642 58.806533,34.0689986 58.6141801,34.1142923 L58.5240592,33.6260476 C58.7808859,33.5490126 59.1591801,33.4976559 59.4993598,33.4976559 C59.8712422,33.4976559 60.1790069,33.5490126 60.3905951,33.7287608 C60.5765363,33.8831874 60.6791245,34.1267748 60.6791245,34.486628 L60.6791245,36.5287678 L60.2495363,36.5287678 Z" id="Fill-51"></path>
          <path d="M63.3079837,36.5286252 L63.3079837,34.582779 C63.3079837,34.2040238 63.134866,34.0242755 62.8075098,34.0242755 C62.5318039,34.0242755 62.2881569,34.1141497 62.0893922,34.2104434 L62.0893922,36.5286252 L61.5055654,36.5286252 L61.5055654,33.5620657 L61.9351536,33.5620657 L61.9868039,33.8316881 C62.2176275,33.6519399 62.5382157,33.4978699 62.8848072,33.4978699 C63.5580425,33.4978699 63.8914542,33.9023035 63.8914542,34.5314224 L63.8914542,36.5286252 L63.3079837,36.5286252 Z" id="Fill-52"></path>
          <path d="M66.2764526,35.1992014 C66.128982,35.1867189 65.9302173,35.1799427 65.7503317,35.1799427 C65.3207435,35.1799427 65.115567,35.3343692 65.115567,35.6617678 C65.115567,35.9442294 65.3015082,36.1303972 65.6224526,36.1303972 C65.8596879,36.1303972 66.103335,36.0469427 66.2764526,35.9121315 L66.2764526,35.1992014 Z M66.430335,36.5287678 L66.3662173,36.2780476 C66.1418056,36.4770545 65.8336846,36.592607 65.5002729,36.592607 C64.8911552,36.592607 64.5189167,36.1881734 64.5189167,35.6617678 C64.5189167,35.398565 64.6215049,35.1350056 64.8334493,34.9684531 C65.0322141,34.807607 65.3143317,34.7434112 65.6285082,34.7434112 C65.8336846,34.7434112 66.0712761,34.7562503 66.2764526,34.7690895 L66.2764526,34.5187259 C66.2764526,34.3389776 66.2315703,34.2234252 66.1546291,34.1463902 C66.0456291,34.0436769 65.8660997,34.017642 65.6285082,34.017642 C65.3399788,34.017642 64.9873317,34.0689986 64.7949788,34.1142923 L64.7048578,33.6260476 C64.9616846,33.5490126 65.3399788,33.4976559 65.6801585,33.4976559 C66.0520408,33.4976559 66.3598056,33.5490126 66.5713938,33.7287608 C66.757335,33.8831874 66.8599232,34.1267748 66.8599232,34.486628 L66.8599232,36.5287678 L66.430335,36.5287678 Z" id="Fill-53"></path>
          <path d="M69.3988395,34.0756678 C69.2257219,34.0435699 68.9820748,34.0178916 68.7704866,34.0178916 C68.263601,34.0178916 68.1353657,34.3649056 68.1353657,35.077479 C68.1353657,35.745472 68.2700127,36.1113881 68.7640748,36.1113881 C68.9820748,36.1113881 69.2064866,36.0660944 69.3988395,35.9701573 L69.3988395,34.0756678 Z M69.3988395,36.3617517 C69.1936631,36.5029825 68.9436042,36.5928566 68.6935454,36.5928566 C67.853248,36.5928566 67.5451271,36.0468357 67.5451271,35.0710594 C67.5451271,33.9601154 67.8917186,33.4979056 68.7127807,33.4979056 C69.1551925,33.4979056 69.6617219,33.5938427 69.9826663,33.7033322 L69.9826663,36.7982832 C69.9826663,37.1192622 69.8800781,37.3443042 69.713016,37.5044371 C69.495016,37.7038007 69.1551925,37.7615769 68.8025454,37.7615769 C68.4687775,37.7615769 68.1225422,37.7098636 67.8468363,37.6588636 L67.9237775,37.1581364 C68.1353657,37.1898776 68.4431304,37.2348147 68.7191925,37.2348147 C68.9564278,37.2348147 69.1744278,37.2091364 69.2834278,37.1000035 C69.360369,37.016549 69.3988395,36.8945769 69.3988395,36.7340874 L69.3988395,36.3617517 Z" id="Fill-54"></path>
          <path d="M72.4445346,34.7948748 C72.4445346,34.3519238 72.3162993,33.9988469 71.8418288,33.9988469 C71.4118843,33.9988469 71.2067078,34.3840217 71.1810608,34.7948748 L72.4445346,34.7948748 Z M72.9510641,36.3551895 C72.6881817,36.4771615 72.3098876,36.592714 71.9251817,36.592714 C71.0528255,36.592714 70.5844105,36.0470497 70.5844105,35.0644972 C70.5844105,34.2492105 70.956649,33.4977629 71.8607078,33.4977629 C72.5791817,33.4977629 72.9959464,34.0113294 72.9959464,34.807714 C72.9959464,34.9682035 72.9767111,35.1290497 72.9510641,35.2570846 L71.174649,35.2570846 C71.1874725,35.5202874 71.2515902,35.7324902 71.3734137,35.8673014 C71.5080608,36.0149517 71.719649,36.072728 71.9632961,36.072728 C72.271417,36.072728 72.5727699,35.9892734 72.816417,35.8865601 L72.9510641,36.3551895 Z" id="Fill-55"></path>
          <path d="M77.1385876,36.5286252 L77.1385876,34.5635203 C77.1385876,34.1911846 76.9590582,34.0242755 76.6320582,34.0242755 C76.4072902,34.0242755 76.1700549,34.1013105 75.9456431,34.2297021 C75.9648784,34.3452545 75.977702,34.4800657 75.977702,34.5956182 L75.977702,36.5286252 L75.3942314,36.5286252 L75.3942314,34.5635203 C75.3942314,34.1911846 75.2207575,34.0242755 74.8937575,34.0242755 C74.6565222,34.0242755 74.4513458,34.0884713 74.2329895,34.2040238 L74.2329895,36.5286252 L73.649519,36.5286252 L73.649519,33.5620657 L74.0791072,33.5620657 L74.1304013,33.8316881 C74.3419895,33.670842 74.6436987,33.4978699 75.0219928,33.4978699 C75.3746399,33.4978699 75.6378784,33.6326811 75.7917608,33.8762685 C76.0482314,33.664779 76.3624078,33.4978699 76.7154111,33.4978699 C77.3758229,33.4978699 77.7220582,33.8634294 77.7220582,34.5895552 L77.7220582,36.5286252 L77.1385876,36.5286252 Z" id="Fill-56"></path>
          <path d="M80.1642637,34.7948748 C80.1642637,34.3519238 80.0360284,33.9988469 79.5615578,33.9988469 C79.1316134,33.9988469 78.9260807,34.3840217 78.9007899,34.7948748 L80.1642637,34.7948748 Z M80.6707931,36.3551895 C80.4079108,36.4771615 80.0296167,36.592714 79.6445546,36.592714 C78.7725546,36.592714 78.3041395,36.0470497 78.3041395,35.0644972 C78.3041395,34.2492105 78.6760219,33.4977629 79.5804369,33.4977629 C80.2989108,33.4977629 80.7160317,34.0113294 80.7160317,34.807714 C80.7160317,34.9682035 80.6964402,35.1290497 80.6707931,35.2570846 L78.8943781,35.2570846 C78.9072016,35.5202874 78.9709631,35.7324902 79.0931428,35.8673014 C79.2277899,36.0149517 79.4393781,36.072728 79.6830252,36.072728 C79.9911461,36.072728 80.292499,35.9892734 80.5361461,35.8865601 L80.6707931,36.3551895 Z" id="Fill-57"></path>
          <path d="M83.1711676,36.5286252 L83.1711676,34.582779 C83.1711676,34.2040238 82.99805,34.0242755 82.67105,34.0242755 C82.3949879,34.0242755 82.1516971,34.1141497 81.9525761,34.2104434 L81.9525761,36.5286252 L81.3687493,36.5286252 L81.3687493,33.5620657 L81.7986938,33.5620657 L81.8499879,33.8316881 C82.0808114,33.6519399 82.4017559,33.4978699 82.7479912,33.4978699 C83.4212265,33.4978699 83.7549944,33.9023035 83.7549944,34.5314224 L83.7549944,36.5286252 L83.1711676,36.5286252 Z" id="Fill-58"></path>
          <path d="M86.1206863,36.4000909 C85.9219216,36.5028042 85.665451,36.5801958 85.4089804,36.5801958 C84.9277418,36.5801958 84.6520359,36.3102168 84.6520359,35.7706154 L84.6520359,34.0437483 L84.2096242,34.0437483 L84.2096242,33.6132797 L84.6712712,33.5876014 L84.7161536,32.7141818 L85.2358627,32.7141818 L85.2358627,33.5619231 L86.0629804,33.5619231 L86.0629804,34.0437483 L85.2358627,34.0437483 L85.2358627,35.6807413 C85.2358627,35.8993636 85.2739771,36.0534336 85.4987451,36.0534336 C85.6394477,36.0534336 85.774451,36.0149161 85.9283333,35.9443007 L86.1206863,36.4000909 Z" id="Fill-59"></path>
        </g>
      </g>
    </g>
  </g>
</svg>
