<svg width="34" height="34" xmlns="http://www.w3.org/2000/svg"><g transform="translate(1 1)" fill="none" fill-rule="evenodd"><path d="M24.692 10.74c-.036.026-.033.057-.058.094l-.044.031v.031l-.03.016v.03l-.043.032v.031l-.044.03v.032l-.045.031v.031l-.058.047v.031l-.059.047v.03l-.058.047v.032l-.088.077v.031h-.015l-.029.047-.088.078v.03l-.279.28-.117.14h-.03l-.101.125h-.03v.015l-.044.031-.03.047h-.028l-.06.078h-.029c-.014.02-.029.04-.043.062h-.03l-.044.061h-.03l-.028.047h-.03l-.029.047h-.03l-.014.03h-.015v.203c.03.036.015.254.015.326l-.044.917h-.015v.14h-.014v.14h-.015v.108c-.054.311-.108.622-.16.933h-.016l-.029.186h-.015l-.015.125h-.014l-.03.17h-.014l-.015.11h-.014v.046h-.015v.046h-.014v.063h-.016v.046h-.014v.047h-.015v.047h-.014v.047h-.015v.046h-.014v.047h-.015v.046h-.015l-.029.14h-.015v.03h-.015l-.014.094h-.015v.031h-.014l-.015.094h-.015v.03h-.014v.047h-.015v.031h-.015v.047h-.014v.031h-.015v.047h-.015l-.015.062h-.014v.047h-.015l-.014.062h-.015v.046h-.014v.031h-.015l-.015.062H22.1v.047h-.015v.031h-.015v.03h-.015l-.029.094h-.014v.047h-.015l-.03.093h-.014v.031h-.015v.032h-.015v.03h-.014v.032h-.015v.03h-.015v.032h-.014v.031l-.03.015-.028.094h-.015v.03h-.015v.032h-.015v.03l-.03.016v.031h-.014v.032h-.014v.03h-.015v.032l-.03.015-.028.093-.03.016c-.004.021-.01.041-.015.062a.74.74 0 0 1-.029.015l-.015.063-.029.016-.014.062-.03.015v.031l-.03.016-.014.062a.503.503 0 0 1-.03.015v.032l-.028.015v.031l-.03.015v.032l-.029.015v.031h-.015l-.014.047-.03.015v.031h-.014l-.015.047-.03.015v.032l-.043.03v.032l-.03.015v.031l-.043.032v.03a.777.777 0 0 0-.03.017v.03c-.014.01-.029.02-.043.032v.03l-.045.031v.032l-.043.03v.032l-.06.046v.032l-.058.046v.03l-.058.047v.032l-.03.015-.029.047h-.015v.03a7.304 7.304 0 0 1-.073.063v.032l-.103.093c-.116.17-.257.304-.395.45-.108.114-.198.23-.323.326l-.117.14h-.03l-.014.031h-.014l-.045.062h-.029l-.015.032-.043.03v.016h-.03l-.058.078h-.03l-.044.062h-.029l-.015.03h-.015l-.014.032h-.03l-.029.047h-.029l-.03.047h-.029l-.03.046h-.028l-.03.047-.044.015-.014.031h-.03v.016l-.043.016-.015.03h-.03l-.029.047h-.029l-.015.031-.043.016v.015h-.03l-.014.031h-.03l-.015.031h-.029l-.014.032h-.03l-.014.03-.06.016v.016l-.043.015a.819.819 0 0 0-.015.031h-.029v.016h-.03l-.014.03-.059.016-.014.031-.059.016-.014.031-.088.031-.015.031h-.03v.015h-.028v.017h-.03v.015h-.03v.015h-.029l-.014.032h-.03v.015h-.029v.016h-.03v.015h-.029v.016h-.029v.015h-.029v.016l-.059.015v.016h-.03v.015h-.028v.016h-.03v.016h-.029v.015h-.03v.015l-.058.016v.016h-.03v.015h-.043v.016h-.03v.015l-.087.031v.016h-.044v.015l-.06.016v.015h-.043v.016h-.03v.016h-.043v.015l-.059.015v.016h-.044v.016h-.029v.015l-.088.016v.015h-.03v.016l-.087.015v.016h-.03v.015h-.044v.015h-.043v.016h-.045v.016h-.044v.015h-.043c-.145.062-.32.115-.47.172l-.175.03v.016l-.293.062v.016l-.147.015c-.142.047-.323.064-.469.109h-.103c-.138.042-.328.035-.468.078h-.162v.015l-.44.016c-.16.047-.452.015-.644.015-.11 0-.252.01-.337-.015h-.25v-.016h-.176v-.015h-.146c-.165-.05-.38-.042-.542-.093l-.176-.016c-.21-.068-.458-.098-.66-.17l-.176-.032c-.179-.07-.383-.128-.556-.202h-.044v-.016h-.044v-.016h-.044v-.015H9.92v-.015h-.03v-.016l-.087-.015v-.016h-.03v-.015l-.088-.016v-.015a2.86 2.86 0 0 0-.073-.016v-.016h-.03v-.015H9.54v-.015l-.059-.016v-.016h-.044v-.015a2.273 2.273 0 0 0-.058-.016v-.015h-.044v-.016h-.03v-.015l-.059-.016v-.015h-.043v-.016l-.088-.03v-.017h-.03v-.015h-.029v-.015h-.03v-.016h-.028v-.016l-.088-.03v-.016l-.059-.016v-.015l-.058-.016v-.015h-.03v-.016h-.03v-.015h-.028v-.016h-.03v-.016l-.088-.03c-.004-.011-.01-.02-.014-.032h-.03V22.1h-.029v-.016h-.03v-.016h-.029l-.014-.03-.088-.032-.015-.03-.059-.016-.014-.031-.059-.016-.014-.03h-.03v-.016h-.03l-.014-.032h-.029l-.015-.03c-.017-.013-.062-.013-.073-.032v-.03c.195.021.391.046.615.046l.235.016v-.016h.41v-.016h.191v-.015h.147v-.016h.117v-.015h.102v-.016h.103c.07-.021.168-.04.234-.062l.147-.015v-.016l.132-.016v-.015h.058v-.015h.06v-.016h.043v-.016h.058v-.015h.06v-.016h.043v-.015h.059v-.016h.044v-.015h.044v-.016h.044v-.015h.044v-.016h.044v-.015h.044v-.016l.088-.016v-.015h.03v-.016l.087-.016v-.015h.03v-.015h.043v-.016l.073-.016v-.015h.03v-.016h.044v-.015h.03v-.016l.072-.015v-.016h.03v-.015h.03v-.016l.087-.03v-.016h.044v-.016l.088-.03v-.017h.029v-.015l.088-.031.015-.03h.029v-.017h.029v-.015h.03v-.015h.029v-.016h.029l.015-.031.088-.031.015-.032.087-.03v-.016l.044-.015.015-.032.059-.016.014-.03h.03v-.016l.044-.016.014-.03h.03l.014-.032h.03v-.015l.044-.016.014-.031h.03l.014-.031h.03c.009-.016.02-.03.029-.047h.029l.015-.03h.03l.028-.047h.03l.029-.047h.03c.008-.006.01-.02.029-.03v-.016h-.235c-.031-.028-.084 0-.132-.016v-.016h-.102v-.015h-.074v-.015h-.073v-.016h-.074v-.016h-.058v-.015h-.058v-.016h-.06v-.015h-.043v-.015h-.044v-.016h-.044v-.016H12v-.015l-.088-.016v-.015h-.03v-.016h-.043v-.016h-.03v-.015h-.043v-.015l-.088-.031v-.016h-.03v-.016h-.029v-.016h-.03v-.015h-.029v-.016h-.029v-.015h-.03v-.016h-.028V19.8h-.03v-.016h-.03l-.014-.03-.058-.016-.015-.032h-.03l-.014-.03h-.03c-.004-.01-.01-.02-.014-.032h-.03l-.014-.03h-.03l-.014-.031h-.03l-.014-.032-.044-.015-.03-.047h-.028l-.03-.046a1.041 1.041 0 0 0-.044-.016l-.073-.093h-.03a26.987 26.987 0 0 0-.117-.14l-.131-.125v-.03l-.089-.078v-.031l-.029-.016v-.016l-.044-.03v-.032l-.044-.03v-.031l-.029-.016v-.031l-.044-.031v-.031l-.03-.016v-.03l-.028-.016a1.195 1.195 0 0 1-.015-.047h-.015l-.014-.063-.03-.014a19.49 19.49 0 0 0-.03-.094l-.029-.016-.029-.093h-.014v-.03h-.015a9.278 9.278 0 0 1-.03-.094h-.014v-.047c-.05-.118-.12-.245-.147-.388.074.007.17.027.235.047l.454.015h.25v-.015h.146v-.016h.102l.323-.078v-.016c-.096 0-.166-.036-.234-.062l-.147-.03v-.016l-.088-.016v-.016l-.073-.015v-.015h-.03v-.016h-.044v-.015l-.058-.016v-.016h-.03v-.015h-.044v-.015l-.087-.032v-.015l-.06-.016-.014-.03h-.03v-.016h-.028v-.016h-.03v-.015h-.029v-.016l-.044-.015a1.664 1.664 0 0 0-.015-.031 2.31 2.31 0 0 1-.058-.016l-.015-.03h-.029l-.015-.032h-.03l-.029-.047h-.029l-.014-.031h-.03l-.03-.047h-.029l-.029-.046c-.014-.005-.03-.01-.043-.016l-.074-.093h-.03l-.087-.109-.19-.186v-.031l-.089-.078v-.03l-.058-.047-.015-.047-.03-.015v-.032l-.029-.015v-.032l-.043-.03v-.032l-.03-.015v-.031l-.03-.016-.014-.062c-.313-.52-.52-1.124-.527-1.973.051.01.08.04.117.062l.088.031v.016l.088.03v.016h.044v.016l.058.015v.016H9.1v.015h.029v.016l.132.03c.249.106.572.179.908.187v-.015c-.017-.01-.02-.025-.03-.031h-.029c-.005-.01-.01-.02-.014-.032h-.03l-.044-.062h-.029L9.95 14.3h-.03c-.023-.032-.048-.063-.072-.094h-.03a26.898 26.898 0 0 0-.117-.14l-.131-.124v-.031l-.089-.078v-.031l-.073-.062v-.031l-.044-.031v-.031l-.03-.016v-.03a1.264 1.264 0 0 1-.043-.032v-.03l-.03-.017a2.335 2.335 0 0 0-.015-.046h-.014l-.015-.063-.029-.015-.014-.047h-.015v-.03h-.015v-.032H9.13v-.03h-.015v-.032l-.03-.016-.014-.061h-.015v-.032h-.014l-.03-.093h-.014v-.046h-.015l-.015-.062h-.014v-.047h-.015v-.031h-.015v-.047H8.91v-.031h-.015l-.015-.094h-.014v-.046H8.85v-.046h-.014a7.657 7.657 0 0 1-.015-.11h-.015v-.061h-.014l-.015-.125h-.015l-.015-.17h-.014v-.094h-.015v-.124h-.014v-.202h-.015a1.629 1.629 0 0 1 .015-.404v-.187h.014l.015-.233h.014v-.077h.015v-.078h.015v-.078h.015v-.063h.014l.015-.108h.015v-.047h.014v-.046h.015v-.047h.014v-.046h.015l.015-.094h.014v-.03h.015v-.047h.015l.014-.062h.015v-.047h.015v-.03h.014v-.032h.015v-.031h.015v-.03h.014V9.84h.015v-.031l.088-.156.044.031v.03c.024.023.049.043.073.063v.032l.088.077v.032l.117.108v.031l.176.17v.032l.25.249.102.124h.029l.103.124.059.047v.016h.029l.102.124h.03l.073.093h.03l.058.078h.03l.014.03h.015l.014.032h.03l.044.062h.029l.014.031h.015l.015.032h.029l.03.046h.029l.03.047h.028l.03.046h.029l.029.047.044.015.015.032h.029v.015l.044.015.014.032h.03l.03.046h.029l.014.031.044.016v.015h.03l.014.031h.03l.014.032h.03l.014.03h.03c.004.01.01.02.014.032h.03l.014.031.059.015.014.03h.03a.54.54 0 0 1 .014.032l.06.015c.004.012.009.022.014.032l.058.016.015.03.059.016.014.031h.03v.016h.029v.016h.029l.015.03h.03v.016h.028v.016h.03v.015h.029l.014.031c.08.036.157.073.235.109l.015.03.058.016v.016l.06.016v.015h.043v.016l.058.015v.015h.03v.016h.03v.016l.087.03v.016h.044v.016h.03v.016l.058.015v.015h.044v.016l.059.015v.016h.043v.015l.06.017v.014h.043v.016h.03v.016l.073.016v.015h.044v.016h.03v.015l.087.016v.015h.03v.016h.043v.015h.044v.016h.044v.015h.044v.016h.044v.016h.03v.015l.146.031v.016h.044v.015h.044v.016h.044v.015h.044v.015h.058v.016h.045v.016l.102.015v.016l.117.015v.016l.118.016c.182.066.41.094.6.155l.176.015c.084.027.208.036.293.062h.118v.016h.132v.015h.146c.104.032.25.03.381.032l-.074-.451v-.28h-.014v-.17h.014v-.265h.016l.014-.248h.015l.014-.156c.035-.116.063-.25.103-.357l.03-.14h.014v-.03h.015l.014-.094h.015l.015-.063h.014v-.046h.015l.029-.093h.015v-.031h.015v-.032h.014v-.03h.015v-.032h.014v-.03h.015v-.032h.015v-.03l.029-.016.015-.063a.37.37 0 0 0 .03-.015l.014-.062h.014a.935.935 0 0 0 .015-.047l.03-.015v-.031l.029-.017v-.03l.044-.031v-.032a.37.37 0 0 0 .029-.015l.015-.047.043-.03v-.032l.044-.03v-.016l.03-.016v-.03l.117-.11v-.03l.103-.094.029-.046h.03l.102-.125h.03l.014-.03h.014l.03-.048h.03l.029-.046h.029l.029-.047h.03l.029-.046h.029a.84.84 0 0 0 .015-.032h.029l.014-.03.045-.016v-.016l.058-.015.015-.031.088-.031.015-.031h.029V9.42h.029v-.015h.03v-.016h.028v-.016h.03v-.015h.03v-.015l.087-.032v-.015h.044V9.28l.059-.015v-.016l.088-.015c.341-.157.723-.234 1.216-.234.16 0 .33-.006.454.031h.103v.016h.073v.016h.074v.015h.073v.015h.058v.017h.06v.015h.058v.015h.044v.016h.044v.016h.043v.015h.045v.016l.087.015v.016h.03v.015h.044v.016h.03v.015h.043v.016l.088.03v.017h.03v.015l.072.015.015.032h.03v.015h.029v.016h.03v.015h.028v.016h.03l.014.03.06.016.014.031.058.016v.015l.045.016.014.03h.03l.028.047h.03l.014.032h.03c.015.02.03.04.044.062h.03l.014.031.044.016.073.093h.03v.016l.043.03c.06.064.113.178.22.187l.674-.187v-.015h.044v-.015h.044v-.016h.044v-.016h.044v-.015l.088-.016V9.84h.03v-.015c.029-.006.058-.012.087-.016v-.016h.03v-.016l.087-.015v-.016l.059-.015v-.016h.044V9.7l.059-.016v-.016h.044v-.015l.058-.015v-.016h.03v-.016l.073-.015v-.016l.059-.015v-.016l.058-.015v-.016h.03v-.015h.03v-.015h.028v-.016h.03V9.45l.088-.03.014-.032h.03v-.016h.029v-.015h.029v-.015h.03l.014-.032h.03v-.015l.087-.031a.363.363 0 0 1-.03.124h-.014l-.015.094h-.014v.03h-.015v.047h-.014v.031h-.015l-.015.077h-.015l-.029.094h-.014v.031h-.015v.032h-.015v.03h-.014v.031h-.015v.032a.38.38 0 0 0-.03.015l-.029.093a.503.503 0 0 1-.03.016l-.014.062-.029.015v.032h-.014l-.015.046a.503.503 0 0 0-.03.016v.03l-.044.032v.03l-.043.032v.03l-.044.032v.03l-.045.032-.014.047-.117.109v.03l-.132.125-.044.062h-.03l-.087.109h-.03a7.39 7.39 0 0 0-.058.078h-.03l-.029.046h-.03l-.029.047h-.029c-.052.037-.106.106-.176.124v.016h.088l.557-.11v-.015h.059v-.015h.058v-.016h.059v-.016h.059v-.015l.117-.015v-.016h.044v-.015h.044v-.016h.058c.257-.098.517-.201.762-.31v.046z" fill="#FFF"/><circle stroke="#FFF" stroke-width="1.5" cx="16" cy="16" r="16"/></g></svg>