<svg width="34" height="34" xmlns="http://www.w3.org/2000/svg"><g transform="translate(1 1)" fill="none" fill-rule="evenodd"><circle stroke="#FFF" stroke-width="1.5" cx="16" cy="16" r="16"/><path d="M25.27 17.096l-.049 2.07h-.05v.543h-.05v.345h-.049v.246h-.05v.246h-.05v.148h-.05v.149h-.05v.147h-.05v.099h-.05v.148h-.049v.098h-.05v.099l-.099.049v.098h-.05c-.072.087-.113.12-.15.247-.215.057-.17.157-.298.246h-.1l-.05.099h-.099v.05l-.299.098v.049l-.299.049v.05l-1.841.148h-.847v.049h-1.643c-.458.126-1.195.05-1.742.05H13.72v-.05h-1.892v-.05h-.15c-.599-.026-1.256.038-1.742-.098h-.398l-.846-.197v-.05a20.853 20.853 0 0 0-.2-.049v-.049h-.099a16.276 16.276 0 0 0-.05-.099h-.1l-.05-.098h-.098c-.018-.033-.034-.066-.05-.099a77.51 77.51 0 0 1-.25-.197v-.099l-.099-.049v-.098h-.05v-.099h-.05v-.098h-.05v-.1h-.05v-.098h-.049l-.05-.295h-.05v-.148h-.05v-.198h-.05v-.197H7.2v-.345h-.05v-.443H7.1v-.591h-.05v-.888H7v-2.66l.05-1.381h.05v-.542h.05v-.493h.05v-.296h.049v-.246h.05v-.197h.05v-.148h.05c.016-.099.032-.197.05-.296h.049l.1-.295h.05l.05-.198.149-.098v-.099l.149-.098v-.05h.1c.05-.065.099-.13.148-.197h.1l.05-.098h.1v-.05l.298-.098v-.049h.15v-.05h.199v-.049h.299v-.05c.497-.015.995-.032 1.493-.049v-.049h1.294c.332-.091.88-.05 1.295-.05L15.314 10h2.688v.049h.498c.503 0 1.178-.066 1.593.049h1.295v.05h.896v.049h.598v.05h.248c.232.08.465.163.697.245l.05.099h.1l.547.493c.88 1.233.747 3.892.747 6.012zm-6.72-1.034l-.05-.099h-.1v-.05h-.099v-.049h-.1v-.049h-.1v-.049h-.099v-.05h-.099v-.048h-.1v-.05h-.1v-.05h-.1v-.048l-.198-.05-.05-.098-.2-.05v-.049h-.099v-.05h-.099v-.048h-.1v-.05h-.1v-.049l-.198-.05v-.049l-.3-.098a8.178 8.178 0 0 1-.049-.099h-.1v-.049h-.099v-.05h-.1v-.049h-.1v-.049h-.098v-.05h-.1v-.049h-.1v-.049h-.1v-.05h-.1v-.048h-.098v-.05h-.1l-.05-.098-.2-.05v-.049h-.098v-.05h-.1v-.048c-.11-.059-.241-.098-.348-.148v5.027h.049c.089-.096.095-.042.2-.099v-.049h.099v-.05h.1v-.049h.099l.05-.098.199-.05v-.049h.1v-.05h.099v-.048h.1v-.05h.1v-.049h.099v-.05h.1v-.048h.099v-.05h.1l.05-.098h.099v-.05h.1v-.049h.099v-.05h.1v-.048h.1v-.05h.099v-.05h.099v-.048h.1v-.05h.1v-.048h.099v-.05h.1l.049-.099h.1v-.05h.1v-.048h.1v-.05h.099v-.048h.099v-.05h.1v-.05h.1v-.049h.099v-.05h.1v-.048h.099l.05-.098.299-.1c.216-.114.426-.282.697-.344v-.1c-.205-.037-.346-.16-.498-.245h-.1z" fill="#FFF"/></g></svg>